<svg width="148" height="125" viewBox="0 0 148 125" fill="none" xmlns="http://www.w3.org/2000/svg">
<path d="M97.4275 107.398C102.085 104.693 105.805 100.629 108.091 95.7523C110.376 90.8751 111.118 85.4164 110.218 80.106C109.317 74.7957 106.817 69.8868 103.051 66.0358C99.2855 62.1849 94.4338 59.5754 89.1449 58.5563C83.856 57.5372 78.3821 58.157 73.455 60.333C68.5279 62.509 64.3826 66.1373 61.5733 70.7328C58.764 75.3284 57.4248 80.6721 57.7345 86.0493C58.0443 91.4266 59.9883 96.5811 63.3067 100.824L25.9088 126.138C30.9233 133.153 37.1605 139.208 44.3217 144.012C52.2764 149.324 61.2124 152.993 70.6047 154.802C79.9971 156.612 89.6564 156.527 99.0153 154.551L89.5241 140.529C78.7636 141.537 67.9392 139.451 58.3235 134.517C55.0235 132.823 51.9037 130.799 49.0118 128.477L73.5847 111.844C74.3825 111.301 75.2796 110.922 76.2245 110.727C77.1694 110.532 78.1434 110.526 79.0907 110.708C80.038 110.891 80.9399 111.259 81.7448 111.791C82.5496 112.323 83.2415 113.008 83.7807 113.808L101.836 140.482C104.048 143.771 107.455 146.069 111.333 146.89C115.212 147.71 119.257 146.987 122.612 144.875L122.737 144.795L97.4275 107.398ZM81.8735 96.2933C78.8367 95.7079 76.145 93.968 74.3641 91.4395C72.5832 88.911 71.8518 85.7906 72.3235 82.734C72.7951 79.6775 74.4333 76.9227 76.8936 75.0487C79.3539 73.1747 82.4448 72.3272 85.5168 72.6845C88.5889 73.0418 91.4028 74.576 93.3674 76.9646C95.3319 79.3532 96.2941 82.4104 96.0517 85.4936C95.8094 88.5769 94.3814 91.4461 92.0677 93.4984C89.7541 95.5508 86.7349 96.6264 83.6448 96.4993C83.0507 96.4694 82.4596 96.3955 81.8764 96.2783L81.8735 96.2933Z" fill="#EFEFEF"/>
<path d="M154.385 98.0865C151.372 113.869 143.115 128.17 130.953 138.67C128.367 140.898 125.629 142.944 122.758 144.793L114.154 132.081C114.657 131.767 115.163 131.438 115.66 131.102C117.995 129.523 120.21 127.772 122.284 125.863C129.923 118.809 135.455 109.774 138.266 99.7639C141.078 89.7536 141.057 79.1598 138.207 69.1604C135.357 59.1611 129.79 50.1481 122.124 43.1237C114.458 36.0993 104.994 31.3388 94.7845 29.3715C84.5748 27.4042 74.0195 28.3072 64.2923 31.9802C54.5651 35.6532 46.0474 41.9521 39.6861 50.1766C33.3248 58.4012 29.3693 68.2289 28.2594 78.567C27.1496 88.9051 28.929 99.3485 33.3996 108.736L20.5926 117.405C15.3515 107.271 12.6103 96.03 12.5975 84.6208C12.5848 73.2117 15.3011 61.9649 20.5195 51.8191C25.7379 41.6733 33.3072 32.9227 42.5957 26.2976C51.8843 19.6724 62.6226 15.3649 73.9147 13.7345C85.2067 12.104 96.725 13.1979 107.508 16.9249C118.292 20.6518 128.027 26.9038 135.902 35.159C143.778 43.4142 149.565 53.4332 152.78 64.38C155.995 75.3267 156.546 86.8837 154.385 98.0865Z" fill="#EFEFEF"/>
</svg>
