<svg width="48" height="48" viewBox="0 0 48 48" fill="none" xmlns="http://www.w3.org/2000/svg">
<rect width="48" height="48" rx="24" fill="#1B2235"/>
<path d="M25.0938 18.6914L29.9062 23.2852C30.043 23.4219 30.125 23.5859 30.125 23.7773C30.125 23.9414 30.043 24.1055 29.9062 24.2422L25.0938 28.8359C24.8477 29.082 24.4102 29.082 24.1641 28.8086C23.918 28.5625 23.918 28.125 24.1914 27.8789L27.8281 24.4336H18.5312C18.1484 24.4336 17.875 24.1328 17.875 23.7773C17.875 23.3945 18.1484 23.1211 18.5312 23.1211H27.8281L24.1914 19.6484C23.918 19.4023 23.918 18.9648 24.1641 18.7188C24.4102 18.4453 24.8203 18.4453 25.0938 18.6914Z" fill="white"/>
</svg>
