<svg width="16" height="21" viewBox="0 0 16 21" fill="none" xmlns="http://www.w3.org/2000/svg">
<path d="M11.125 8C11.125 9.75781 9.71875 11.125 8 11.125C6.24219 11.125 4.875 9.75781 4.875 8C4.875 6.28125 6.24219 4.875 8 4.875C9.71875 4.875 11.125 6.28125 11.125 8ZM8 6.75C7.29688 6.75 6.75 7.33594 6.75 8C6.75 8.70312 7.29688 9.25 8 9.25C8.66406 9.25 9.25 8.70312 9.25 8C9.25 7.33594 8.66406 6.75 8 6.75ZM15.5 8C15.5 11.4375 10.9297 17.4922 8.89844 20.0312C8.42969 20.6172 7.53125 20.6172 7.0625 20.0312C5.03125 17.4922 0.5 11.4375 0.5 8C0.5 3.85938 3.82031 0.5 8 0.5C12.1406 0.5 15.5 3.85938 15.5 8ZM8 2.375C4.875 2.375 2.375 4.91406 2.375 8C2.375 8.50781 2.53125 9.25 2.96094 10.2656C3.35156 11.2031 3.9375 12.2969 4.60156 13.3906C5.73438 15.1875 7.02344 16.9062 8 18.1562C8.9375 16.9062 10.2266 15.1875 11.3594 13.3906C12.0234 12.2969 12.6094 11.2031 13 10.2656C13.4297 9.25 13.625 8.50781 13.625 8C13.625 4.91406 11.0859 2.375 8 2.375Z" fill="#969CAC"/>
</svg>
