<svg width="40" height="40" viewBox="0 0 40 40" fill="none" xmlns="http://www.w3.org/2000/svg">
<rect width="40" height="40" rx="8" fill="#2D3858"/>
<path d="M30.2734 22.7266C30.8984 23.2344 31.25 24.0156 31.2109 24.7969C31.2109 25.6172 30.8203 26.3594 30.1562 26.8281L26.25 29.7969C25.625 30.2656 24.8438 30.5 24.0625 30.5H9.6875C9.14062 30.5 8.75 30.1094 8.75 29.5625C8.75 29.0547 9.14062 28.625 9.6875 28.6641H24.0625C24.4531 28.6641 24.8047 28.5078 25.1172 28.3125L29.0625 25.3438C29.4531 25.0312 29.4922 24.4844 29.0625 24.1328C28.7891 23.8984 28.2812 23.8984 27.9688 24.1328L25.5859 25.9297C25.2734 26.1641 24.9219 26.2812 24.5312 26.2812H19.2578C18.9844 26.2812 18.75 26.0469 18.75 25.7734C18.75 25.4609 18.9844 25.2266 19.2578 25.2266H21.6016C22.7734 25.2266 22.7344 23.6641 21.6406 23.6641H16.0156C15.3125 23.6641 14.6484 23.8594 14.1016 24.2891L12.5 25.5391H9.6875C9.14062 25.5391 8.75 25.1094 8.75 24.6016C8.75 24.0547 9.14062 23.6641 9.6875 23.6641H11.8359L12.9688 22.8047C13.8281 22.1406 14.9219 21.75 16.0156 21.75H21.6406C23.1641 21.75 24.3359 22.9219 24.2969 24.4062H24.4531L26.7969 22.6484C27.5391 22.0625 29.0234 21.6719 30.2734 22.7266ZM19.6484 17.3359C20.3125 17.4531 20.8594 17.3359 20.8984 17.0625C20.9375 16.8672 20.9766 16.7891 19.7266 16.4375L19.4531 16.3594C18.75 16.125 16.875 15.5781 17.1875 13.6641C17.3828 12.7266 18.0469 12.1016 19.0625 11.8672V11.4375C19.0625 10.9297 19.4531 10.5 20 10.5C20.5078 10.5 20.9375 10.9297 20.9375 11.4375V11.9062C21.1328 11.9453 21.4062 12.0234 21.6797 12.1016C22.1875 12.2969 22.4219 12.8047 22.2656 13.3125C22.1094 13.8203 21.5625 14.0547 21.0938 13.8984C20.7422 13.7812 20.5078 13.7031 20.3125 13.6641C19.6484 13.5859 19.1016 13.7031 19.0625 13.9766C19.0234 14.1328 19.0234 14.25 20 14.5625L20.1562 14.6016C21.1719 14.9141 23.0078 15.4219 22.6953 17.375C22.5781 18.3125 21.875 18.9375 20.8984 19.1719V19.5625C20.8984 20.1094 20.4688 20.5 19.9609 20.5C19.4141 20.5 19.0234 20.1094 19.0234 19.5625V19.1328C18.6328 19.0547 18.2812 18.9375 17.9297 18.8203L17.7734 18.7422C17.3047 18.5859 17.0312 18.0391 17.2266 17.5312C17.3828 17.0625 17.9297 16.7891 18.4375 16.9844L18.5938 17.0625C18.9453 17.1797 19.3359 17.2969 19.6484 17.3359Z" fill="white"/>
</svg>
