<svg width="15" height="10" viewBox="0 0 15 10" fill="none" xmlns="http://www.w3.org/2000/svg">
<path d="M10.025 0.375C10.9821 0.375 11.775 1.16797 11.775 2.125V4.09375H13.7438C14.0992 4.09375 14.4 4.39453 14.4 4.75C14.4 5.13281 14.0992 5.40625 13.7438 5.40625H11.775V7.375C11.775 8.35938 10.9821 9.125 10.025 9.125H9.15002C8.16565 9.125 7.40002 8.35938 7.40002 7.375V2.125C7.40002 1.16797 8.16565 0.375 9.15002 0.375H10.025ZM10.025 1.6875H9.15002C8.90393 1.6875 8.71252 1.90625 8.71252 2.125V7.375C8.71252 7.62109 8.90393 7.8125 9.15002 7.8125H10.025C10.2438 7.8125 10.4625 7.62109 10.4625 7.375V2.125C10.4625 1.90625 10.2438 1.6875 10.025 1.6875ZM1.05627 4.09375H6.52502V5.40625H1.05627C0.673462 5.40625 0.400024 5.13281 0.400024 4.75C0.400024 4.39453 0.673462 4.09375 1.05627 4.09375Z" fill="#1B2235"/>
</svg>
