<svg width="20" height="20" viewBox="0 0 20 20" fill="none" xmlns="http://www.w3.org/2000/svg">
<path d="M16.875 2C17.4688 2 18 2.375 18 2.96875V12.4062C18 12.7812 17.75 13.125 17.3125 13.2812C15.9688 13.8125 14.8438 14 13.8438 14C11.5312 14 9.9375 13.0312 7.625 13.0312C6.5 13.0312 5.15625 13.2812 3.5 14V17.25C3.5 17.6875 3.15625 18 2.75 18C2.3125 18 2 17.6875 2 17.25V2.75C2 2.34375 2.3125 2 2.75 2C3.15625 2 3.5 2.34375 3.5 2.75V3.03125C5.34375 2.28125 6.6875 2.03125 7.78125 2.03125C9.9375 2.03125 11.0312 3.03125 12.9062 3.03125C13.7812 3.03125 14.8438 2.8125 16.25 2.15625C16.4688 2.0625 16.6562 2 16.875 2ZM16.5 12V3.6875C15.1562 4.25 14 4.53125 12.9062 4.53125C11.75 4.53125 10.8438 4.21875 10.0625 3.96875C9.3125 3.75 8.65625 3.53125 7.78125 3.53125C6.75 3.53125 5.53125 3.8125 4.0625 4.40625L3.5 4.65625V12.375C4.9375 11.8125 6.3125 11.5312 7.625 11.5312C8.96875 11.5312 10.0938 11.8125 11.0938 12.0625C12.0312 12.2812 12.875 12.5 13.8438 12.5C14.6562 12.5 15.5312 12.3438 16.5 12Z" fill="#1B2235"/>
</svg>
