<svg width="19" height="16" viewBox="0 0 19 16" fill="none" xmlns="http://www.w3.org/2000/svg">
<path d="M14.3125 2.5C15.5156 2.5 16.5 3.48438 16.4727 4.6875V10.8125C16.4727 12.043 15.4883 13 14.3125 13C13.1094 13 12.125 12.043 12.125 10.8125V4.6875C12.125 3.48438 13.082 2.5 14.3125 2.5ZM15.1875 10.8125V4.6875C15.1875 4.22266 14.7773 3.8125 14.3125 3.8125C13.8203 3.8125 13.4375 4.22266 13.4375 4.6875V10.8125C13.4375 11.3047 13.8203 11.6875 14.3125 11.6875C14.7773 11.6875 15.1875 11.3047 15.1875 10.8125ZM9.0625 6C10.2656 6 11.25 6.98438 11.1953 8.1875V10.8125C11.1953 12.043 10.2109 13 9.03516 13C7.83203 13 6.875 12.043 6.875 10.8125V6.13672C6.875 4.60547 7.80469 3.23828 9.28125 2.58203C9.60938 2.41797 10.0195 2.58203 10.1562 2.91016C10.293 3.23828 10.1562 3.62109 9.82812 3.75781C8.81641 4.22266 8.1875 5.125 8.1875 6.13672V6.19141C8.43359 6.08203 8.73438 6 9.0625 6ZM9.9375 10.8125V8.1875C9.9375 7.72266 9.52734 7.3125 9.0625 7.3125C8.57031 7.3125 8.1875 7.72266 8.1875 8.1875V10.8125C8.1875 11.3047 8.57031 11.6875 9.0625 11.6875C9.52734 11.6875 9.9375 11.3047 9.9375 10.8125ZM17.375 0.75C17.8398 0.75 18.25 1.16016 18.25 1.625C18.25 2.11719 17.8125 2.5 17.375 2.5C16.9102 2.5 16.5 2.11719 16.5 1.625C16.5 1.16016 16.8828 0.75 17.375 0.75ZM3.42969 6.46484C4.85156 6.49219 6 7.66797 6 9.08984V10.3477C6 11.8242 4.79688 13 3.34766 13C2.44531 13 1.625 12.5625 1.13281 11.8242L0.859375 11.4141C0.640625 11.1133 0.722656 10.7031 1.02344 10.5117C1.32422 10.293 1.73438 10.375 1.92578 10.6758L2.22656 11.1133C2.47266 11.4688 2.88281 11.6875 3.34766 11.6875C4.08594 11.6875 4.6875 11.0859 4.6875 10.3477V9.08984C4.6875 8.35156 4.08594 7.75 3.34766 7.75H2.28125C2.03516 7.75 1.81641 7.64062 1.70703 7.42188C1.57031 7.23047 1.59766 6.95703 1.70703 6.76562L3.51172 3.8125H1.40625C1.02344 3.8125 0.75 3.53906 0.75 3.15625C0.75 2.80078 1.02344 2.5 1.40625 2.5H4.6875C4.90625 2.5 5.125 2.63672 5.23438 2.85547C5.37109 3.04688 5.37109 3.32031 5.23438 3.51172L3.42969 6.46484Z" fill="#1B2235"/>
</svg>
