<svg width="20" height="20" viewBox="0 0 20 20" fill="none" xmlns="http://www.w3.org/2000/svg">
<path d="M3.5 14.75C3.5 15.1875 3.8125 15.5 4.25 15.5H17.25C17.6562 15.5 18 15.8438 18 16.25C18 16.6875 17.6562 17 17.25 17H4.25C3 17 2 16 2 14.75V3.75C2 3.34375 2.3125 3 2.75 3C3.15625 3 3.5 3.34375 3.5 3.75V14.75ZM12.75 6H16.25C16.6562 6 17 6.34375 17 6.75V10.25C17 10.6875 16.6562 11 16.25 11C15.8125 11 15.5 10.6875 15.5 10.25V8.5625L12 12.0312C11.7188 12.3438 11.25 12.3438 10.9688 12.0312L8.46875 9.5625L6.5 11.5312C6.21875 11.8438 5.75 11.8438 5.46875 11.5312C5.15625 11.25 5.15625 10.7812 5.46875 10.4688L7.96875 7.96875C8.25 7.6875 8.71875 7.6875 9 7.96875L11.5 10.4688L14.4375 7.5H12.75C12.3125 7.5 12 7.1875 12 6.75C12 6.34375 12.3125 6 12.75 6Z" fill="#1B2235"/>
</svg>
