<svg width="20" height="20" viewBox="0 0 20 20" fill="none" xmlns="http://www.w3.org/2000/svg">
<path d="M12.5 11.5C12.5 11.25 12.7188 11 13 11H14C14.25 11 14.5 11.25 14.5 11.5V12.5C14.5 12.7812 14.25 13 14 13H13C12.7188 13 12.5 12.7812 12.5 12.5V11.5ZM12.5 5.5C12.5 5.25 12.7188 5 13 5H14C14.25 5 14.5 5.25 14.5 5.5V6.5C14.5 6.78125 14.25 7 14 7H13C12.7188 7 12.5 6.78125 12.5 6.5V5.5ZM13 10C12.7188 10 12.5 9.78125 12.5 9.5V8.5C12.5 8.25 12.7188 8 13 8H14C14.25 8 14.5 8.25 14.5 8.5V9.5C14.5 9.78125 14.25 10 14 10H13ZM16 2C17.0938 2 18 2.90625 18 4V16C18 17.125 17.0938 18 16 18H11C9.875 18 9 17.125 9 16V4C9 2.90625 9.875 2 11 2H16ZM16 3.5H11C10.7188 3.5 10.5 3.75 10.5 4V16C10.5 16.2812 10.7188 16.5 11 16.5H16C16.25 16.5 16.5 16.2812 16.5 16V4C16.5 3.75 16.25 3.5 16 3.5ZM8 7.5H4.25C3.8125 7.5 3.5 7.84375 3.5 8.25V15.75C3.5 16.1875 3.8125 16.5 4.25 16.5H8.03125C8.125 17.0938 8.375 17.5938 8.75 18H4.25C3 18 2 17 2 15.75V8.25C2 7.03125 3 6 4.25 6H8V7.5ZM6.5 12C6.75 12 7 12.25 7 12.5V13.5C7 13.7812 6.75 14 6.5 14H5.5C5.21875 14 5 13.7812 5 13.5V12.5C5 12.25 5.21875 12 5.5 12H6.5ZM6.5 9C6.75 9 7 9.25 7 9.5V10.5C7 10.7812 6.75 11 6.5 11H5.5C5.21875 11 5 10.7812 5 10.5V9.5C5 9.25 5.21875 9 5.5 9H6.5Z" fill="#1B2235"/>
</svg>
