<svg width="40" height="40" viewBox="0 0 40 40" fill="none" xmlns="http://www.w3.org/2000/svg">
<rect width="40" height="40" rx="8" fill="#2F69FE"/>
<path d="M20.625 29.5625C20.625 30.1094 20.1953 30.5 19.6875 30.5C19.1406 30.5 18.75 30.1094 18.75 29.5625V12.6875C18.75 11.5156 19.7266 10.5 20.9375 10.5H25.3125C26.4844 10.5 27.5 11.5156 27.5 12.6875V18H28.75V15.1875C28.75 14.6797 29.1406 14.25 29.6875 14.25C30.1953 14.25 30.625 14.6797 30.625 15.1875V18.0391C31.6797 18.1953 32.5 19.0938 32.5 20.1875V29.5625C32.5 30.1094 32.0703 30.5 31.5625 30.5C31.0156 30.5 30.625 30.1094 30.625 29.5625V20.1875C30.625 20.0312 30.4688 19.875 30.3125 19.875H25.625V12.6875C25.625 12.5312 25.4688 12.375 25.3125 12.375H20.9375C20.7422 12.375 20.625 12.5312 20.625 12.6875V29.5625ZM21.875 14.25C21.875 13.9375 22.1484 13.625 22.5 13.625H23.75C24.0625 13.625 24.375 13.9375 24.375 14.25V15.5C24.375 15.8516 24.0625 16.125 23.75 16.125H22.5C22.1484 16.125 21.875 15.8516 21.875 15.5V14.25ZM23.75 17.375C24.0625 17.375 24.375 17.6875 24.375 18V19.25C24.375 19.6016 24.0625 19.875 23.75 19.875H22.5C22.1484 19.875 21.875 19.6016 21.875 19.25V18C21.875 17.6875 22.1484 17.375 22.5 17.375H23.75ZM21.875 21.75C21.875 21.4375 22.1484 21.125 22.5 21.125H23.75C24.0625 21.125 24.375 21.4375 24.375 21.75V23C24.375 23.3516 24.0625 23.625 23.75 23.625H22.5C22.1484 23.625 21.875 23.3516 21.875 23V21.75ZM28.75 21.125C29.0625 21.125 29.375 21.4375 29.375 21.75V23C29.375 23.3516 29.0625 23.625 28.75 23.625H27.5C27.1484 23.625 26.875 23.3516 26.875 23V21.75C26.875 21.4375 27.1484 21.125 27.5 21.125H28.75ZM26.875 25.5C26.875 25.1875 27.1484 24.875 27.5 24.875H28.75C29.0625 24.875 29.375 25.1875 29.375 25.5V26.75C29.375 27.1016 29.0625 27.375 28.75 27.375H27.5C27.1484 27.375 26.875 27.1016 26.875 26.75V25.5ZM16.25 16.75C16.25 16.9844 16.2109 17.1797 16.1719 17.375C16.9531 17.9219 17.5 18.8594 17.5 19.875C17.5 21.6328 16.0938 23 14.375 23H13.75V29.25C13.75 29.9531 13.1641 30.5 12.5 30.5C11.7969 30.5 11.25 29.9531 11.25 29.25V23H10.625C8.86719 23 7.5 21.6328 7.5 19.875C7.5 18.8594 8.00781 17.9219 8.78906 17.375C8.75 17.1797 8.75 16.9844 8.75 16.75C8.75 14.6797 10.3906 13 12.5 13C14.5703 13 16.25 14.6797 16.25 16.75Z" fill="white"/>
</svg>
