<svg width="15" height="14" viewBox="0 0 15 14" fill="none" xmlns="http://www.w3.org/2000/svg">
<path d="M0.299927 11.125C0.299927 10.7695 0.573364 10.4688 0.956177 10.4688H2.56946C2.8429 9.59375 3.69055 8.9375 4.67493 8.9375C5.63196 8.9375 6.47961 9.59375 6.75305 10.4688H13.6437C13.9991 10.4688 14.2999 10.7695 14.2999 11.125C14.2999 11.5078 13.9991 11.7812 13.6437 11.7812H6.75305C6.47961 12.6836 5.63196 13.3125 4.67493 13.3125C3.69055 13.3125 2.8429 12.6836 2.56946 11.7812H0.956177C0.573364 11.7812 0.299927 11.5078 0.299927 11.125ZM5.54993 11.125C5.54993 10.6602 5.13977 10.25 4.67493 10.25C4.18274 10.25 3.79993 10.6602 3.79993 11.125C3.79993 11.6172 4.18274 12 4.67493 12C5.13977 12 5.54993 11.6172 5.54993 11.125ZM9.92493 4.5625C10.882 4.5625 11.7296 5.21875 12.0031 6.09375H13.6437C13.9991 6.09375 14.2999 6.39453 14.2999 6.75C14.2999 7.13281 13.9991 7.40625 13.6437 7.40625H12.0031C11.7296 8.30859 10.882 8.9375 9.92493 8.9375C8.94055 8.9375 8.0929 8.30859 7.81946 7.40625H0.956177C0.573364 7.40625 0.299927 7.13281 0.299927 6.75C0.299927 6.39453 0.573364 6.09375 0.956177 6.09375H7.81946C8.0929 5.21875 8.94055 4.5625 9.92493 4.5625ZM10.7999 6.75C10.7999 6.28516 10.3898 5.875 9.92493 5.875C9.43274 5.875 9.04993 6.28516 9.04993 6.75C9.04993 7.24219 9.43274 7.625 9.92493 7.625C10.3898 7.625 10.7999 7.24219 10.7999 6.75ZM13.6437 1.71875C13.9991 1.71875 14.2999 2.01953 14.2999 2.375C14.2999 2.75781 13.9991 3.03125 13.6437 3.03125H7.62805C7.35461 3.93359 6.50696 4.5625 5.54993 4.5625C4.56555 4.5625 3.7179 3.93359 3.44446 3.03125H0.956177C0.573364 3.03125 0.299927 2.75781 0.299927 2.375C0.299927 2.01953 0.573364 1.71875 0.956177 1.71875H3.44446C3.7179 0.84375 4.56555 0.1875 5.54993 0.1875C6.50696 0.1875 7.35461 0.84375 7.62805 1.71875H13.6437ZM4.67493 2.375C4.67493 2.86719 5.05774 3.25 5.54993 3.25C6.01477 3.25 6.42493 2.86719 6.42493 2.375C6.42493 1.91016 6.01477 1.5 5.54993 1.5C5.05774 1.5 4.67493 1.91016 4.67493 2.375Z" fill="#1B2235"/>
</svg>
