<svg width="20" height="20" viewBox="0 0 20 20" fill="none" xmlns="http://www.w3.org/2000/svg">
<path d="M16.5625 4.625C17.125 4.875 17.5 5.40625 17.5 6C17.5 14.125 11.5312 18 9.96875 18C8.40625 18 2.5 14.0625 2.5 6C2.5 5.40625 2.84375 4.875 3.40625 4.625L9.40625 2.125C9.59375 2.0625 9.78125 2.03125 10 2.03125C10.1875 2.03125 10.375 2.0625 10.5625 2.125L16.5625 4.625ZM10 16.5C12.9062 15.2812 16 11.4375 16 6L10 3.5L4 6C4 11.3125 6.9375 15.25 10 16.5ZM8.25 9.71875L9.1875 10.6562L11.6562 7.75C11.8125 7.5625 12.0312 7.5 12.25 7.5C12.8125 7.5 13 8 13 8.25C13 8.40625 12.9375 8.59375 12.8125 8.71875L9.8125 12.2188C9.59375 12.4688 9.3125 12.5 9.25 12.5C9.03125 12.5 8.84375 12.4375 8.71875 12.2812L7.21875 10.7812C7.0625 10.6562 7 10.4688 7 10.25C7 9.84375 7.3125 9.5 7.75 9.5C7.9375 9.5 8.125 9.59375 8.25 9.71875Z" fill="#1B2235"/>
</svg>
