<svg width="20" height="20" viewBox="0 0 20 20" fill="none" xmlns="http://www.w3.org/2000/svg">
<path d="M7.5 4.8125C7.53125 4.84375 7.5625 4.90625 7.65625 5C7.65625 5 7.6875 5 7.6875 5.03125C7.09375 5.03125 6.53125 5.0625 6 5.15625V4.75C6 4.1875 6.28125 3.75 6.65625 3.4375C7 3.09375 7.46875 2.84375 8 2.65625C9.0625 2.25 10.4688 2 12 2C13.5 2 14.9062 2.25 15.9688 2.65625C16.5 2.84375 16.9688 3.09375 17.3125 3.4375C17.6875 3.75 18 4.1875 18 4.75V11.25C18 11.8125 17.6875 12.2812 17.3125 12.5938C16.9688 12.9375 16.5 13.1875 15.9688 13.375C15.6562 13.5 15.3438 13.5938 15 13.6875V12.125C15.1562 12.0938 15.2812 12.0312 15.4375 11.9688C15.8438 11.8125 16.1562 11.6562 16.3125 11.5C16.4062 11.4062 16.4375 11.3438 16.4688 11.3125C16.5 11.2812 16.5 11.25 16.5 11.25V9.90625C16.3125 10 16.1562 10.0625 15.9688 10.125C15.6562 10.25 15.3438 10.3438 15 10.4375V8.875C15.1562 8.84375 15.2812 8.78125 15.4375 8.71875C15.8438 8.5625 16.1562 8.40625 16.3125 8.25C16.4062 8.15625 16.4375 8.09375 16.4688 8.0625C16.4688 8.03125 16.4688 8.03125 16.5 8V6.65625C16.3125 6.75 16.1562 6.8125 15.9688 6.875C15.5312 7.03125 15.0312 7.1875 14.5312 7.28125C14.3438 7.03125 14.1875 6.84375 14 6.6875C13.6875 6.40625 13.3125 6.15625 12.9375 5.96875C13.9062 5.90625 14.7812 5.71875 15.4375 5.46875C15.8438 5.3125 16.1562 5.15625 16.3125 5C16.4062 4.90625 16.4375 4.84375 16.4688 4.8125C16.4688 4.78125 16.4688 4.78125 16.5 4.75C16.5 4.75 16.5 4.75 16.4688 4.71875C16.4375 4.6875 16.4062 4.625 16.3125 4.53125C16.1562 4.375 15.8438 4.21875 15.4375 4.0625C14.5938 3.71875 13.375 3.5 12 3.5C10.5938 3.5 9.375 3.71875 8.53125 4.0625C8.125 4.21875 7.8125 4.375 7.65625 4.53125C7.5625 4.625 7.53125 4.6875 7.5 4.71875C7.46875 4.75 7.46875 4.75 7.46875 4.75C7.5 4.78125 7.5 4.78125 7.5 4.8125ZM2 8.75C2 8.1875 2.28125 7.75 2.65625 7.4375C3 7.09375 3.46875 6.84375 4 6.65625C5.0625 6.25 6.46875 6 8 6C9.5 6 10.9062 6.25 11.9688 6.65625C12.5 6.84375 12.9688 7.09375 13.3125 7.4375C13.6875 7.75 14 8.1875 14 8.75V15.25C14 15.8125 13.6875 16.2812 13.3125 16.5938C12.9688 16.9375 12.5 17.1875 11.9688 17.375C10.9062 17.7812 9.5 18 8 18C6.46875 18 5.0625 17.7812 4 17.375C3.46875 17.1875 3 16.9375 2.65625 16.5938C2.28125 16.2812 2 15.8125 2 15.25V8.75ZM3.5 8.8125C3.53125 8.84375 3.5625 8.90625 3.65625 9C3.8125 9.15625 4.125 9.3125 4.53125 9.46875C5.375 9.8125 6.59375 10 8 10C9.375 10 10.5938 9.8125 11.4375 9.46875C11.8438 9.3125 12.1562 9.15625 12.3125 9C12.4062 8.90625 12.4375 8.84375 12.4688 8.8125C12.4688 8.78125 12.4688 8.78125 12.5 8.75C12.5 8.75 12.5 8.75 12.4688 8.71875C12.4375 8.6875 12.4062 8.625 12.3125 8.53125C12.1562 8.375 11.8438 8.21875 11.4375 8.0625C10.5938 7.71875 9.375 7.5 8 7.5C6.59375 7.5 5.375 7.71875 4.53125 8.0625C4.125 8.21875 3.8125 8.375 3.65625 8.53125C3.5625 8.625 3.53125 8.6875 3.5 8.71875C3.46875 8.75 3.46875 8.75 3.5 8.75C3.5 8.78125 3.5 8.78125 3.5 8.8125ZM12.5 10.6562C12.3125 10.75 12.1562 10.8125 11.9688 10.875C10.9062 11.2812 9.5 11.5 8 11.5C6.46875 11.5 5.0625 11.2812 4 10.875C3.8125 10.8125 3.65625 10.75 3.5 10.6562V12C3.5 12.0312 3.5 12.0312 3.5 12.0625C3.53125 12.0938 3.5625 12.1562 3.65625 12.25C3.8125 12.4062 4.125 12.5625 4.53125 12.7188C5.375 13.0625 6.59375 13.25 8 13.25C9.375 13.25 10.5938 13.0625 11.4375 12.7188C11.8438 12.5625 12.1562 12.4062 12.3125 12.25C12.4062 12.1562 12.4375 12.0938 12.4688 12.0625C12.4688 12.0312 12.4688 12.0312 12.5 12V10.6562ZM4 14.125C3.8125 14.0625 3.65625 14 3.5 13.9062V15.25C3.46875 15.25 3.46875 15.2812 3.5 15.3125C3.53125 15.3438 3.5625 15.4062 3.65625 15.5C3.8125 15.6562 4.125 15.8125 4.53125 15.9688C5.375 16.3125 6.59375 16.5 8 16.5C9.375 16.5 10.5938 16.3125 11.4375 15.9688C11.8438 15.8125 12.1562 15.6562 12.3125 15.5C12.4062 15.4062 12.4375 15.3438 12.4688 15.3125C12.5 15.2812 12.5 15.25 12.5 15.25V13.9062C12.3125 14 12.1562 14.0625 11.9688 14.125C10.9062 14.5312 9.5 14.75 7.96875 14.75C6.46875 14.75 5.0625 14.5312 4 14.125Z" fill="#1B2235"/>
</svg>
