<svg width="20" height="20" viewBox="0 0 20 20" fill="none" xmlns="http://www.w3.org/2000/svg">
<path d="M13.5 2C14.5938 2 15.5 2.90625 15.5 4V16C15.5 17.125 14.5938 18 13.5 18H6.5C5.375 18 4.5 17.125 4.5 16V4C4.5 2.90625 5.375 2 6.5 2H13.5ZM14 16V4C14 3.75 13.75 3.5 13.5 3.5H6.5C6.21875 3.5 6 3.75 6 4V16C6 16.2812 6.21875 16.5 6.5 16.5H13.5C13.75 16.5 14 16.2812 14 16ZM11 14.5C11.25 14.5 11.5 14.75 11.5 15C11.5 15.2812 11.25 15.5 11 15.5H9C8.71875 15.5 8.5 15.2812 8.5 15C8.5 14.75 8.71875 14.5 9 14.5H11Z" fill="#9AA4B2"/>
</svg>
