<svg width="40" height="40" viewBox="0 0 40 40" fill="none" xmlns="http://www.w3.org/2000/svg">
<rect width="40" height="40" rx="8" fill="#E9353F"/>
<path d="M23.125 22.375C23.125 22.0625 23.3984 21.75 23.75 21.75H25C25.3125 21.75 25.625 22.0625 25.625 22.375V23.625C25.625 23.9766 25.3125 24.25 25 24.25H23.75C23.3984 24.25 23.125 23.9766 23.125 23.625V22.375ZM23.125 14.875C23.125 14.5625 23.3984 14.25 23.75 14.25H25C25.3125 14.25 25.625 14.5625 25.625 14.875V16.125C25.625 16.4766 25.3125 16.75 25 16.75H23.75C23.3984 16.75 23.125 16.4766 23.125 16.125V14.875ZM23.75 20.5C23.3984 20.5 23.125 20.2266 23.125 19.875V18.625C23.125 18.3125 23.3984 18 23.75 18H25C25.3125 18 25.625 18.3125 25.625 18.625V19.875C25.625 20.2266 25.3125 20.5 25 20.5H23.75ZM27.5 10.5C28.8672 10.5 30 11.6328 30 13V28C30 29.4062 28.8672 30.5 27.5 30.5H21.25C19.8438 30.5 18.75 29.4062 18.75 28V13C18.75 11.6328 19.8438 10.5 21.25 10.5H27.5ZM27.5 12.375H21.25C20.8984 12.375 20.625 12.6875 20.625 13V28C20.625 28.3516 20.8984 28.625 21.25 28.625H27.5C27.8125 28.625 28.125 28.3516 28.125 28V13C28.125 12.6875 27.8125 12.375 27.5 12.375ZM17.5 17.375H12.8125C12.2656 17.375 11.875 17.8047 11.875 18.3125V27.6875C11.875 28.2344 12.2656 28.625 12.8125 28.625H17.5391C17.6562 29.3672 17.9688 29.9922 18.4375 30.5H12.8125C11.25 30.5 10 29.25 10 27.6875V18.3125C10 16.7891 11.25 15.5 12.8125 15.5H17.5V17.375ZM15.625 23C15.9375 23 16.25 23.3125 16.25 23.625V24.875C16.25 25.2266 15.9375 25.5 15.625 25.5H14.375C14.0234 25.5 13.75 25.2266 13.75 24.875V23.625C13.75 23.3125 14.0234 23 14.375 23H15.625ZM15.625 19.25C15.9375 19.25 16.25 19.5625 16.25 19.875V21.125C16.25 21.4766 15.9375 21.75 15.625 21.75H14.375C14.0234 21.75 13.75 21.4766 13.75 21.125V19.875C13.75 19.5625 14.0234 19.25 14.375 19.25H15.625Z" fill="white"/>
</svg>
