<svg width="32" height="32" viewBox="0 0 32 32" fill="none" xmlns="http://www.w3.org/2000/svg">
<rect x="0.5" y="0.5" width="31" height="31" rx="3.5" stroke="#D5D7DE"/>
<path d="M20.6875 12.375C20.9922 12.375 21.25 12.6328 21.25 12.9375C21.25 13.2656 20.9922 13.5 20.6875 13.5H20.4062L19.8438 21.1172C19.7734 21.9141 19.1406 22.5 18.3438 22.5H13.6328C12.8359 22.5 12.2031 21.9141 12.1328 21.1172L11.5703 13.5H11.3125C10.9844 13.5 10.75 13.2656 10.75 12.9375C10.75 12.6328 10.9844 12.375 11.3125 12.375H12.9297L13.7969 11.0859C14.0312 10.7344 14.4531 10.5 14.8984 10.5H17.0781C17.5234 10.5 17.9453 10.7344 18.1797 11.0859L19.0469 12.375H20.6875ZM14.8984 11.625C14.8281 11.625 14.7578 11.6719 14.7344 11.7188L14.2891 12.375H17.6875L17.2422 11.7188C17.2188 11.6719 17.1484 11.625 17.0781 11.625H14.8984ZM19.2812 13.5H12.6953L13.2578 21.0469C13.2812 21.2344 13.4453 21.375 13.6328 21.375H18.3438C18.5312 21.375 18.6953 21.2344 18.7188 21.0469L19.2812 13.5Z" fill="#1B2235"/>
</svg>
