<svg width="40" height="40" viewBox="0 0 40 40" fill="none" xmlns="http://www.w3.org/2000/svg">
<rect width="40" height="40" rx="8" fill="#F6D12E"/>
<path d="M25 18.625C25 20.3828 23.5938 21.75 21.875 21.75C20.1172 21.75 18.75 20.3828 18.75 18.625C18.75 16.9062 20.1172 15.5 21.875 15.5C23.5938 15.5 25 16.9062 25 18.625ZM30 11.75C31.3672 11.75 32.5 12.8828 32.5 14.25V23C32.5 24.4062 31.3672 25.5 30 25.5H13.75C12.3438 25.5 11.25 24.4062 11.25 23V14.25C11.25 12.8828 12.3438 11.75 13.75 11.75H30ZM28.125 13.625H15.625C15.625 15.0312 14.4922 16.125 13.125 16.125V21.125C14.4922 21.125 15.625 22.2578 15.625 23.625H28.125C28.125 22.2578 29.2188 21.125 30.625 21.125V16.125C29.2188 16.125 28.125 15.0312 28.125 13.625ZM9.375 24.5625C9.375 26.125 10.625 27.375 12.1875 27.375H27.8125C28.3203 27.375 28.75 27.8047 28.75 28.3125C28.75 28.8594 28.3203 29.25 27.8125 29.25H12.1875C9.57031 29.25 7.5 27.1797 7.5 24.5625V15.1875C7.5 14.6797 7.89062 14.25 8.4375 14.25C8.94531 14.25 9.375 14.6797 9.375 15.1875V24.5625Z" fill="white"/>
</svg>
