<svg width="11" height="15" viewBox="0 0 11 15" fill="none" xmlns="http://www.w3.org/2000/svg">
<path d="M0.083374 1.40625C0.083374 1.05078 0.356812 0.75 0.739624 0.75H9.92712C10.2826 0.75 10.5834 1.05078 10.5834 1.40625C10.5834 1.78906 10.2826 2.0625 9.92712 2.0625H9.70837V2.58203C9.70837 3.70312 9.24353 4.74219 8.47791 5.53516L6.23572 7.75L8.47791 9.99219C9.24353 10.7578 9.70837 11.8242 9.70837 12.918V13.4375H9.92712C10.2826 13.4375 10.5834 13.7383 10.5834 14.0938C10.5834 14.4766 10.2826 14.75 9.92712 14.75H0.739624C0.356812 14.75 0.083374 14.4766 0.083374 14.0938C0.083374 13.7383 0.356812 13.4375 0.739624 13.4375H0.958374V12.918C0.958374 11.8242 1.39587 10.7578 2.1615 9.99219L4.40369 7.75L2.1615 5.53516C1.39587 4.74219 0.958374 3.70312 0.958374 2.58203V2.0625H0.739624C0.356812 2.0625 0.083374 1.78906 0.083374 1.40625ZM2.79041 11.25H7.849C7.76697 11.1406 7.65759 11.0312 7.54822 10.9219L5.33337 8.67969L3.09119 10.9219C2.98181 11.0312 2.87244 11.1406 2.79041 11.25ZM7.849 4.25C8.17712 3.78516 8.39587 3.21094 8.39587 2.58203V2.0625H2.27087V2.58203C2.27087 3.21094 2.46228 3.78516 2.79041 4.25H7.849Z" fill="white"/>
</svg>
