<svg width="24" height="24" viewBox="0 0 24 24" fill="none" xmlns="http://www.w3.org/2000/svg">
<path d="M18.5625 2.5C19.0703 2.5 19.5 2.92969 19.5 3.4375C19.5 3.98438 19.0703 4.375 18.5625 4.375H18.25V5.11719C18.25 6.71875 17.5859 8.20312 16.4922 9.33594L13.2891 12.5L16.4922 15.7031C17.5859 16.7969 18.25 18.3203 18.25 19.8828V20.625H18.5625C19.0703 20.625 19.5 21.0547 19.5 21.5625C19.5 22.1094 19.0703 22.5 18.5625 22.5H5.4375C4.89062 22.5 4.5 22.1094 4.5 21.5625C4.5 21.0547 4.89062 20.625 5.4375 20.625H5.75V19.8828C5.75 18.3203 6.375 16.7969 7.46875 15.7031L10.6719 12.5L7.46875 9.33594C6.375 8.20312 5.75 6.71875 5.75 5.11719V4.375H5.4375C4.89062 4.375 4.5 3.98438 4.5 3.4375C4.5 2.92969 4.89062 2.5 5.4375 2.5H18.5625ZM12 13.8281L8.79688 17.0312C8.01562 17.7734 7.625 18.8281 7.625 19.8828V20.625H16.375V19.8828C16.375 18.8281 15.9453 17.7734 15.1641 17.0312L12 13.8281ZM12 11.2109L15.1641 8.00781C15.9453 7.22656 16.375 6.21094 16.375 5.11719V4.375H7.625V5.11719C7.625 6.21094 8.01562 7.22656 8.79688 8.00781L12 11.2109Z" fill="#1B2235"/>
</svg>
