<svg width="40" height="40" viewBox="0 0 40 40" fill="none" xmlns="http://www.w3.org/2000/svg">
<rect width="40" height="40" rx="8" fill="#2D3858"/>
<path d="M11.875 26.4375C11.875 26.9844 12.2656 27.375 12.8125 27.375H29.0625C29.5703 27.375 30 27.8047 30 28.3125C30 28.8594 29.5703 29.25 29.0625 29.25H12.8125C11.25 29.25 10 28 10 26.4375V12.6875C10 12.1797 10.3906 11.75 10.9375 11.75C11.4453 11.75 11.875 12.1797 11.875 12.6875V26.4375ZM23.125 22.4141C22.7734 22.8047 22.1875 22.8047 21.8359 22.4141L18.7109 19.3281L15.625 22.4141C15.2734 22.8047 14.6875 22.8047 14.3359 22.4141C13.9453 22.0625 13.9453 21.4766 14.3359 21.0859L18.0859 17.3359C18.2422 17.1797 18.4766 17.0625 18.7109 17.0625C18.9844 17.0625 19.2188 17.1797 19.375 17.3359L22.5 20.4609L27.1484 15.7734C27.5 15.4219 28.0859 15.4219 28.4375 15.7734C28.8281 16.1641 28.8281 16.75 28.4375 17.1016L23.125 22.4141Z" fill="white"/>
</svg>
