<svg width="10" height="14" viewBox="0 0 10 14" fill="none" xmlns="http://www.w3.org/2000/svg">
<path d="M8.03516 7.625C9.21094 7.625 9.78516 9.04688 8.96484 9.86719L5.92969 12.9297C5.41016 13.4492 4.5625 13.4492 4.07031 12.9297L1.00781 9.86719C0.160156 9.04688 0.761719 7.625 1.9375 7.625H8.03516ZM5 12L8.0625 8.9375H1.9375L5 12ZM1.9375 5.875C0.761719 5.875 0.1875 4.48047 1.00781 3.66016L4.07031 0.597656C4.5625 0.078125 5.41016 0.078125 5.90234 0.597656L8.96484 3.63281C9.8125 4.45312 9.21094 5.875 8.03516 5.875H1.9375ZM5 1.5L1.9375 4.5625H8.03516L5 1.5Z" fill="#1B2235"/>
</svg>
