<svg width="42" height="11" viewBox="0 0 42 11" fill="none" xmlns="http://www.w3.org/2000/svg">
<path d="M0.231 10V0.242H2.933C4.529 0.242 5.76567 0.676 6.643 1.544C7.52033 2.40267 7.959 3.62067 7.959 5.198C7.959 6.74733 7.525 7.93733 6.657 8.768C5.789 9.58933 4.543 10 2.919 10H0.231ZM1.463 8.866H2.807C3.63767 8.866 4.34233 8.74467 4.921 8.502C5.509 8.25 5.95233 7.85333 6.251 7.312C6.559 6.76133 6.713 6.04267 6.713 5.156C6.713 4.26933 6.559 3.55067 6.251 3C5.95233 2.44 5.51833 2.02933 4.949 1.768C4.389 1.50667 3.71233 1.376 2.919 1.376H1.463V8.866ZM12.588 10.112C12.0466 10.112 11.5706 10.0233 11.16 9.846C10.7586 9.65933 10.4226 9.40267 10.152 9.076C9.89064 8.74933 9.68997 8.376 9.54997 7.956C9.4193 7.52667 9.35397 7.074 9.35397 6.598C9.35397 6.122 9.4193 5.66933 9.54997 5.24C9.68064 4.80133 9.87197 4.414 10.124 4.078C10.3853 3.742 10.712 3.476 11.104 3.28C11.496 3.084 11.9533 2.986 12.476 2.986C13.008 2.986 13.4653 3.07933 13.848 3.266C14.24 3.44333 14.5573 3.69067 14.8 4.008C15.052 4.32533 15.2386 4.68 15.36 5.072C15.4813 5.464 15.542 5.87 15.542 6.29C15.542 6.32733 15.5373 6.416 15.528 6.556C15.528 6.68667 15.5186 6.80333 15.5 6.906H10.53C10.558 7.578 10.754 8.10067 11.118 8.474C11.482 8.84733 11.9766 9.034 12.602 9.034C13.0033 9.034 13.3533 8.96867 13.652 8.838C13.9506 8.70733 14.2306 8.49733 14.492 8.208L15.318 8.936C15.066 9.20667 14.8 9.43067 14.52 9.608C14.24 9.776 13.9413 9.902 13.624 9.986C13.316 10.07 12.9706 10.112 12.588 10.112ZM14.366 6.304C14.3846 6.22933 14.394 6.15467 14.394 6.08C14.4033 6.00533 14.408 5.93067 14.408 5.856C14.408 5.632 14.366 5.408 14.282 5.184C14.2073 4.96 14.0906 4.75933 13.932 4.582C13.7826 4.39533 13.5866 4.25067 13.344 4.148C13.1106 4.036 12.8306 3.98 12.504 3.98C12.1026 3.98 11.7573 4.07333 11.468 4.26C11.1786 4.44667 10.9546 4.694 10.796 5.002C10.6373 5.31 10.544 5.65067 10.516 6.024H14.758L14.366 6.304ZM19.4642 10.112C19.1375 10.112 18.8388 10.0513 18.5682 9.93C18.3068 9.79933 18.1015 9.594 17.9522 9.314C17.8028 9.034 17.7282 8.67467 17.7282 8.236V1.25L18.9322 0.577999V7.928C18.9322 8.31067 18.9928 8.60933 19.1142 8.824C19.2355 9.02933 19.4548 9.132 19.7722 9.132C19.8655 9.132 19.9775 9.12267 20.1082 9.104C20.2388 9.076 20.3788 9.04333 20.5282 9.006V9.93C20.3508 9.99533 20.1688 10.042 19.9822 10.07C19.8048 10.098 19.6322 10.112 19.4642 10.112ZM16.3002 4.022V3.098H20.5282V4.022H16.3002ZM26.544 10L26.46 8.614V5.674C26.46 5.142 26.3107 4.73133 26.012 4.442C25.7227 4.15267 25.2887 4.008 24.71 4.008C24.3367 4.008 23.9867 4.08733 23.66 4.246C23.3333 4.39533 23.016 4.652 22.708 5.016L21.854 4.288C22.2367 3.84 22.6753 3.51333 23.17 3.308C23.6647 3.09333 24.206 2.986 24.794 2.986C25.6993 2.986 26.3993 3.21933 26.894 3.686C27.3887 4.15267 27.636 4.81533 27.636 5.674V10H26.544ZM24.262 10.112C23.7393 10.112 23.282 10.0233 22.89 9.846C22.5073 9.65933 22.2087 9.40267 21.994 9.076C21.7887 8.74933 21.686 8.37133 21.686 7.942C21.686 7.55933 21.7607 7.23733 21.91 6.976C22.0687 6.70533 22.2693 6.49533 22.512 6.346C22.7547 6.18733 23.03 6.08 23.338 6.024C23.6553 5.95867 23.9867 5.926 24.332 5.926H26.572V6.822H24.5C24.2947 6.822 24.08 6.84067 23.856 6.878C23.632 6.91533 23.436 6.99467 23.268 7.116C23.1467 7.20933 23.0487 7.326 22.974 7.466C22.9087 7.606 22.876 7.76933 22.876 7.956C22.876 8.32 23.0113 8.60933 23.282 8.824C23.5527 9.03867 23.9167 9.146 24.374 9.146C24.7567 9.146 25.102 9.05733 25.41 8.88C25.7273 8.70267 25.9793 8.46 26.166 8.152C26.362 7.83467 26.46 7.48 26.46 7.088L26.95 7.592C26.894 8.08667 26.7447 8.52533 26.502 8.908C26.2593 9.29067 25.9467 9.58933 25.564 9.804C25.1907 10.0093 24.7567 10.112 24.262 10.112ZM29.5545 10V3.098H30.7305V10H29.5545ZM29.4425 1.852V0.242H30.8425V1.852H29.4425ZM34.1128 10.112C33.6928 10.112 33.3521 9.98133 33.0908 9.72C32.8294 9.45867 32.6988 9.04333 32.6988 8.474V0.242H33.8748V8.25C33.8748 8.52067 33.9308 8.71667 34.0428 8.838C34.1548 8.95933 34.3041 9.02 34.4908 9.02C34.5748 9.02 34.6681 9.01067 34.7708 8.992C34.8734 8.97333 34.9808 8.94533 35.0928 8.908V9.916C34.9341 9.98133 34.7661 10.028 34.5888 10.056C34.4114 10.0933 34.2528 10.112 34.1128 10.112ZM38.7138 10.112C38.2472 10.112 37.8272 10.042 37.4538 9.902C37.0805 9.762 36.7585 9.57533 36.4878 9.342C36.2265 9.10867 36.0165 8.86133 35.8578 8.6L36.6838 7.9C36.8612 8.25467 37.1225 8.54867 37.4678 8.782C37.8225 9.006 38.2425 9.118 38.7278 9.118C39.1665 9.118 39.5165 9.02467 39.7778 8.838C40.0392 8.65133 40.1698 8.39933 40.1698 8.082C40.1698 7.82067 40.0905 7.61533 39.9318 7.466C39.7732 7.31667 39.5632 7.19533 39.3018 7.102C39.0405 7.00867 38.7558 6.92467 38.4478 6.85C38.1865 6.78467 37.9205 6.70533 37.6498 6.612C37.3885 6.51867 37.1505 6.402 36.9358 6.262C36.7212 6.122 36.5485 5.94 36.4178 5.716C36.2872 5.492 36.2218 5.21667 36.2218 4.89C36.2218 4.32067 36.4412 3.86333 36.8798 3.518C37.3278 3.16333 37.9112 2.986 38.6298 2.986C39.1525 2.986 39.6285 3.098 40.0578 3.322C40.4965 3.53667 40.8372 3.86333 41.0798 4.302L40.3238 4.862C40.1372 4.53533 39.8898 4.302 39.5818 4.162C39.2832 4.01267 38.9518 3.938 38.5878 3.938C38.2238 3.938 37.9205 4.01267 37.6778 4.162C37.4352 4.31133 37.3138 4.51667 37.3138 4.778C37.3138 4.974 37.3698 5.13267 37.4818 5.254C37.5938 5.37533 37.7572 5.478 37.9718 5.562C38.1958 5.646 38.4665 5.72533 38.7838 5.8C39.0732 5.86533 39.3672 5.94467 39.6658 6.038C39.9645 6.13133 40.2398 6.25267 40.4918 6.402C40.7438 6.55133 40.9445 6.752 41.0938 7.004C41.2525 7.24667 41.3318 7.564 41.3318 7.956C41.3318 8.38533 41.2245 8.76333 41.0098 9.09C40.7952 9.41667 40.4918 9.66867 40.0998 9.846C39.7078 10.0233 39.2458 10.112 38.7138 10.112Z" fill="#2F69FE"/>
</svg>
