<svg width="24" height="24" viewBox="0 0 24 24" fill="none" xmlns="http://www.w3.org/2000/svg">
<path d="M8.875 6.01562C8.91406 6.05469 8.95312 6.13281 9.07031 6.25C9.07031 6.25 9.10938 6.25 9.10938 6.28906C8.36719 6.28906 7.66406 6.32812 7 6.44531V5.9375C7 5.23438 7.35156 4.6875 7.82031 4.29688C8.25 3.86719 8.83594 3.55469 9.5 3.32031C10.8281 2.8125 12.5859 2.5 14.5 2.5C16.375 2.5 18.1328 2.8125 19.4609 3.32031C20.125 3.55469 20.7109 3.86719 21.1406 4.29688C21.6094 4.6875 22 5.23438 22 5.9375V14.0625C22 14.7656 21.6094 15.3516 21.1406 15.7422C20.7109 16.1719 20.125 16.4844 19.4609 16.7188C19.0703 16.875 18.6797 16.9922 18.25 17.1094V15.1562C18.4453 15.1172 18.6016 15.0391 18.7969 14.9609C19.3047 14.7656 19.6953 14.5703 19.8906 14.375C20.0078 14.2578 20.0469 14.1797 20.0859 14.1406C20.125 14.1016 20.125 14.0625 20.125 14.0625V12.3828C19.8906 12.5 19.6953 12.5781 19.4609 12.6562C19.0703 12.8125 18.6797 12.9297 18.25 13.0469V11.0938C18.4453 11.0547 18.6016 10.9766 18.7969 10.8984C19.3047 10.7031 19.6953 10.5078 19.8906 10.3125C20.0078 10.1953 20.0469 10.1172 20.0859 10.0781C20.0859 10.0391 20.0859 10.0391 20.125 10V8.32031C19.8906 8.4375 19.6953 8.51562 19.4609 8.59375C18.9141 8.78906 18.2891 8.98438 17.6641 9.10156C17.4297 8.78906 17.2344 8.55469 17 8.35938C16.6094 8.00781 16.1406 7.69531 15.6719 7.46094C16.8828 7.38281 17.9766 7.14844 18.7969 6.83594C19.3047 6.64062 19.6953 6.44531 19.8906 6.25C20.0078 6.13281 20.0469 6.05469 20.0859 6.01562C20.0859 5.97656 20.0859 5.97656 20.125 5.9375C20.125 5.9375 20.125 5.9375 20.0859 5.89844C20.0469 5.85938 20.0078 5.78125 19.8906 5.66406C19.6953 5.46875 19.3047 5.27344 18.7969 5.07812C17.7422 4.64844 16.2188 4.375 14.5 4.375C12.7422 4.375 11.2188 4.64844 10.1641 5.07812C9.65625 5.27344 9.26562 5.46875 9.07031 5.66406C8.95312 5.78125 8.91406 5.85938 8.875 5.89844C8.83594 5.9375 8.83594 5.9375 8.83594 5.9375C8.875 5.97656 8.875 5.97656 8.875 6.01562ZM2 10.9375C2 10.2344 2.35156 9.6875 2.82031 9.29688C3.25 8.86719 3.83594 8.55469 4.5 8.32031C5.82812 7.8125 7.58594 7.5 9.5 7.5C11.375 7.5 13.1328 7.8125 14.4609 8.32031C15.125 8.55469 15.7109 8.86719 16.1406 9.29688C16.6094 9.6875 17 10.2344 17 10.9375V19.0625C17 19.7656 16.6094 20.3516 16.1406 20.7422C15.7109 21.1719 15.125 21.4844 14.4609 21.7188C13.1328 22.2266 11.375 22.5 9.5 22.5C7.58594 22.5 5.82812 22.2266 4.5 21.7188C3.83594 21.4844 3.25 21.1719 2.82031 20.7422C2.35156 20.3516 2 19.7656 2 19.0625V10.9375ZM3.875 11.0156C3.91406 11.0547 3.95312 11.1328 4.07031 11.25C4.26562 11.4453 4.65625 11.6406 5.16406 11.8359C6.21875 12.2656 7.74219 12.5 9.5 12.5C11.2188 12.5 12.7422 12.2656 13.7969 11.8359C14.3047 11.6406 14.6953 11.4453 14.8906 11.25C15.0078 11.1328 15.0469 11.0547 15.0859 11.0156C15.0859 10.9766 15.0859 10.9766 15.125 10.9375C15.125 10.9375 15.125 10.9375 15.0859 10.8984C15.0469 10.8594 15.0078 10.7812 14.8906 10.6641C14.6953 10.4688 14.3047 10.2734 13.7969 10.0781C12.7422 9.64844 11.2188 9.375 9.5 9.375C7.74219 9.375 6.21875 9.64844 5.16406 10.0781C4.65625 10.2734 4.26562 10.4688 4.07031 10.6641C3.95312 10.7812 3.91406 10.8594 3.875 10.8984C3.83594 10.9375 3.83594 10.9375 3.875 10.9375C3.875 10.9766 3.875 10.9766 3.875 11.0156ZM15.125 13.3203C14.8906 13.4375 14.6953 13.5156 14.4609 13.5938C13.1328 14.1016 11.375 14.375 9.5 14.375C7.58594 14.375 5.82812 14.1016 4.5 13.5938C4.26562 13.5156 4.07031 13.4375 3.875 13.3203V15C3.875 15.0391 3.875 15.0391 3.875 15.0781C3.91406 15.1172 3.95312 15.1953 4.07031 15.3125C4.26562 15.5078 4.65625 15.7031 5.16406 15.8984C6.21875 16.3281 7.74219 16.5625 9.5 16.5625C11.2188 16.5625 12.7422 16.3281 13.7969 15.8984C14.3047 15.7031 14.6953 15.5078 14.8906 15.3125C15.0078 15.1953 15.0469 15.1172 15.0859 15.0781C15.0859 15.0391 15.0859 15.0391 15.125 15V13.3203ZM4.5 17.6562C4.26562 17.5781 4.07031 17.5 3.875 17.3828V19.0625C3.83594 19.0625 3.83594 19.1016 3.875 19.1406C3.91406 19.1797 3.95312 19.2578 4.07031 19.375C4.26562 19.5703 4.65625 19.7656 5.16406 19.9609C6.21875 20.3906 7.74219 20.625 9.5 20.625C11.2188 20.625 12.7422 20.3906 13.7969 19.9609C14.3047 19.7656 14.6953 19.5703 14.8906 19.375C15.0078 19.2578 15.0469 19.1797 15.0859 19.1406C15.125 19.1016 15.125 19.0625 15.125 19.0625V17.3828C14.8906 17.5 14.6953 17.5781 14.4609 17.6562C13.1328 18.1641 11.375 18.4375 9.46094 18.4375C7.58594 18.4375 5.82812 18.1641 4.5 17.6562Z" fill="#1B2235"/>
</svg>
