<svg width="17" height="16" viewBox="0 0 17 16" fill="none" xmlns="http://www.w3.org/2000/svg">
<path d="M10.0312 2.9375C9.64844 2.9375 9.375 2.66406 9.375 2.28125C9.375 1.92578 9.64844 1.625 10.0312 1.625H13.9688C14.3242 1.625 14.625 1.92578 14.625 2.28125V6.21875C14.625 6.60156 14.3242 6.875 13.9688 6.875C13.5859 6.875 13.3125 6.60156 13.3125 6.21875V3.86719L7.84375 9.30859C7.59766 9.58203 7.1875 9.58203 6.94141 9.30859C6.66797 9.0625 6.66797 8.65234 6.94141 8.37891L12.3828 2.9375H10.0312ZM2.375 4.03125C2.375 3.21094 3.05859 2.5 3.90625 2.5H6.96875C7.32422 2.5 7.625 2.80078 7.625 3.15625C7.625 3.53906 7.32422 3.8125 6.96875 3.8125H3.90625C3.76953 3.8125 3.6875 3.92188 3.6875 4.03125V12.3438C3.6875 12.4805 3.76953 12.5625 3.90625 12.5625H12.2188C12.3281 12.5625 12.4375 12.4805 12.4375 12.3438V9.28125C12.4375 8.92578 12.7109 8.625 13.0938 8.625C13.4492 8.625 13.75 8.92578 13.75 9.28125V12.3438C13.75 13.1914 13.0391 13.875 12.2188 13.875H3.90625C3.05859 13.875 2.375 13.1914 2.375 12.3438V4.03125Z" fill="#1B2235"/>
</svg>
