<svg width="16" height="16" viewBox="0 0 16 16" fill="none" xmlns="http://www.w3.org/2000/svg">
<path d="M13.332 6.875C12.7852 6.875 12.293 6.71094 11.9102 6.41016C11.7734 6.32812 11.6641 6.21875 11.5547 6.08203C11.4453 6.21875 11.3359 6.32812 11.1992 6.41016C10.7891 6.71094 10.2969 6.875 9.77734 6.875C9.23047 6.875 8.73828 6.71094 8.35547 6.41016C8.21875 6.32812 8.08203 6.21875 7.97266 6.08203C7.86328 6.21875 7.75391 6.32812 7.61719 6.41016C7.23438 6.71094 6.74219 6.875 6.19531 6.875C5.67578 6.875 5.18359 6.71094 4.77344 6.41016C4.63672 6.32812 4.52734 6.21875 4.41797 6.08203C4.30859 6.21875 4.19922 6.32812 4.0625 6.41016C3.65234 6.71094 3.16016 6.875 2.64062 6.875C2.53125 6.875 2.42188 6.875 2.3125 6.875C0.78125 6.65625 0.0703125 4.87891 0.890625 3.59375L2.44922 1.13281C2.58594 0.886719 2.83203 0.75 3.10547 0.75H12.8672C13.1406 0.75 13.3867 0.886719 13.5234 1.13281L15.082 3.59375C15.9023 4.87891 15.1914 6.65625 13.6602 6.875C13.5508 6.875 13.4414 6.875 13.332 6.875ZM12.5664 2.0625H3.40625L1.98438 4.30469C1.84766 4.55078 1.82031 4.85156 1.92969 5.125C2.03906 5.37109 2.23047 5.53516 2.47656 5.5625C2.53125 5.5625 2.58594 5.5625 2.64062 5.5625C2.96875 5.5625 3.24219 5.42578 3.43359 5.20703C3.70703 4.93359 4.03516 4.76953 4.41797 4.76953C4.80078 4.76953 5.15625 4.93359 5.40234 5.20703C5.59375 5.42578 5.86719 5.5625 6.19531 5.5625C6.52344 5.5625 6.79688 5.42578 7.01562 5.20703C7.26172 4.93359 7.61719 4.76953 7.97266 4.76953C8.35547 4.76953 8.71094 4.93359 8.95703 5.20703C9.14844 5.42578 9.44922 5.5625 9.77734 5.5625C10.0781 5.5625 10.3789 5.42578 10.5703 5.20703C10.8164 4.93359 11.1719 4.76953 11.5547 4.76953C11.9102 4.76953 12.2656 4.93359 12.5117 5.20703C12.7305 5.42578 13.0039 5.5625 13.332 5.5625C13.3867 5.5625 13.4414 5.5625 13.4961 5.5625C13.7422 5.53516 13.9336 5.37109 14.043 5.125C14.1523 4.85156 14.125 4.55078 13.9883 4.30469L12.5664 2.0625ZM12.8125 9.9375V7.72266C12.9766 7.75 13.1406 7.75 13.332 7.75C13.4961 7.75 13.6328 7.75 13.7695 7.72266C13.8789 7.72266 14.0156 7.69531 14.125 7.66797V13C14.125 13.9844 13.332 14.75 12.375 14.75H3.625C2.64062 14.75 1.875 13.9844 1.875 13V7.66797C1.95703 7.69531 2.06641 7.72266 2.17578 7.72266H2.20312C2.33984 7.75 2.47656 7.75 2.64062 7.75C2.83203 7.75 2.99609 7.75 3.1875 7.72266V9.9375H12.8125ZM12.8125 11.25H3.1875V13C3.1875 13.2461 3.37891 13.4375 3.625 13.4375H12.375C12.5938 13.4375 12.8125 13.2461 12.8125 13V11.25Z" fill="#576079"/>
</svg>
