<svg width="12" height="12" viewBox="0 0 12 12" fill="none" xmlns="http://www.w3.org/2000/svg">
<path d="M7.40625 9.6875C7.66016 9.6875 7.85547 9.90234 7.85547 10.1562C7.85547 10.4297 7.66016 10.625 7.40625 10.625H6.46875C6.19531 10.625 6 10.4297 6 10.1562C6 9.90234 6.19531 9.6875 6.46875 9.6875H7.40625ZM8.63672 7.1875C8.91016 7.1875 9.10547 7.40234 9.10547 7.65625C9.10547 7.92969 8.89062 8.125 8.63672 8.125H6.46875C6.19531 8.125 6 7.92969 6 7.65625C6 7.40234 6.19531 7.1875 6.46875 7.1875H8.63672ZM9.88672 4.6875C10.1602 4.6875 10.3555 4.90234 10.3555 5.15625C10.3555 5.42969 10.1406 5.625 9.88672 5.625H6.46875C6.19531 5.625 6 5.42969 6 5.15625C6 4.90234 6.19531 4.6875 6.46875 4.6875H9.88672ZM11.1367 2.1875C11.4102 2.1875 11.6055 2.40234 11.6055 2.65625C11.6055 2.92969 11.3906 3.125 11.1367 3.125H6.46875C6.19531 3.125 6 2.92969 6 2.65625C6 2.40234 6.19531 2.1875 6.46875 2.1875H11.1367ZM4.39844 7.8125C4.57422 7.63672 4.86719 7.61719 5.02344 7.79297C5.21875 7.96875 5.21875 8.26172 5.04297 8.45703L3.1875 10.4883C3.01172 10.6836 2.67969 10.6836 2.50391 10.4883L0.648438 8.45703C0.472656 8.26172 0.472656 7.96875 0.667969 7.79297C0.765625 7.71484 0.882812 7.67578 1 7.67578C1.11719 7.67578 1.23438 7.71484 1.33203 7.8125L2.40625 8.96484V2.36328C2.40625 2.08984 2.60156 1.875 2.875 1.875C3.12891 1.875 3.34375 2.08984 3.34375 2.36328V8.96484L4.39844 7.8125Z" fill="#2F69FE"/>
</svg>
