<svg width="18" height="16" viewBox="0 0 18 16" fill="none" xmlns="http://www.w3.org/2000/svg">
<path d="M3.09375 0.75C3.44922 0.75 3.75 1.05078 3.75 1.40625V2.5H5.0625V1.40625C5.0625 1.05078 5.33594 0.75 5.71875 0.75C6.07422 0.75 6.375 1.05078 6.375 1.40625V3.8125H2.21875C1.83594 3.8125 1.5625 4.11328 1.5625 4.46875V12.7812C1.5625 13.1641 1.83594 13.4375 2.21875 13.4375H6.375C6.375 13.9297 6.51172 14.3945 6.78516 14.75H2.21875C1.125 14.75 0.25 13.875 0.25 12.7812V4.46875C0.25 3.40234 1.125 2.5 2.21875 2.5H2.4375V1.40625C2.4375 1.05078 2.71094 0.75 3.09375 0.75ZM9.875 9.0625C9.875 8.84375 10.0664 8.625 10.3125 8.625H11.1875C11.4062 8.625 11.625 8.84375 11.625 9.0625V9.9375C11.625 10.1836 11.4062 10.375 11.1875 10.375H10.3125C10.0664 10.375 9.875 10.1836 9.875 9.9375V9.0625ZM11.1875 3.375C11.4062 3.375 11.625 3.59375 11.625 3.8125V4.6875C11.625 4.93359 11.4062 5.125 11.1875 5.125H10.3125C10.0664 5.125 9.875 4.93359 9.875 4.6875V3.8125C9.875 3.59375 10.0664 3.375 10.3125 3.375H11.1875ZM9.875 6.4375C9.875 6.21875 10.0664 6 10.3125 6H11.1875C11.4062 6 11.625 6.21875 11.625 6.4375V7.3125C11.625 7.55859 11.4062 7.75 11.1875 7.75H10.3125C10.0664 7.75 9.875 7.55859 9.875 7.3125V6.4375ZM13.8125 12.125C13.5664 12.125 13.375 11.9336 13.375 11.6875V10.8125C13.375 10.5938 13.5664 10.375 13.8125 10.375H14.6875C14.9062 10.375 15.125 10.5938 15.125 10.8125V11.6875C15.125 11.9336 14.9062 12.125 14.6875 12.125H13.8125ZM13.375 8.1875C13.375 7.96875 13.5664 7.75 13.8125 7.75H14.6875C14.9062 7.75 15.125 7.96875 15.125 8.1875V9.0625C15.125 9.30859 14.9062 9.5 14.6875 9.5H13.8125C13.5664 9.5 13.375 9.30859 13.375 9.0625V8.1875ZM14.25 5.125H16C16.957 5.125 17.75 5.91797 17.75 6.875V13C17.75 13.9844 16.957 14.75 16 14.75H9C8.01562 14.75 7.25 13.9844 7.25 13V2.5C7.25 1.54297 8.01562 0.75 9 0.75H12.5C13.457 0.75 14.25 1.54297 14.25 2.5V5.125ZM12.9375 2.5C12.9375 2.28125 12.7188 2.0625 12.5 2.0625H9C8.75391 2.0625 8.5625 2.28125 8.5625 2.5V13C8.5625 13.2461 8.75391 13.4375 9 13.4375H16C16.2188 13.4375 16.4375 13.2461 16.4375 13V6.875C16.4375 6.65625 16.2188 6.4375 16 6.4375H12.9375V2.5ZM3.3125 9.5C3.06641 9.5 2.875 9.30859 2.875 9.0625V8.1875C2.875 7.96875 3.06641 7.75 3.3125 7.75H4.1875C4.40625 7.75 4.625 7.96875 4.625 8.1875V9.0625C4.625 9.30859 4.40625 9.5 4.1875 9.5H3.3125ZM2.875 10.8125C2.875 10.5938 3.06641 10.375 3.3125 10.375H4.1875C4.40625 10.375 4.625 10.5938 4.625 10.8125V11.6875C4.625 11.9336 4.40625 12.125 4.1875 12.125H3.3125C3.06641 12.125 2.875 11.9336 2.875 11.6875V10.8125ZM3.3125 6.875C3.06641 6.875 2.875 6.68359 2.875 6.4375V5.5625C2.875 5.34375 3.06641 5.125 3.3125 5.125H4.1875C4.40625 5.125 4.625 5.34375 4.625 5.5625V6.4375C4.625 6.68359 4.40625 6.875 4.1875 6.875H3.3125Z" fill="#1B2235"/>
</svg>
