<svg width="32" height="32" viewBox="0 0 32 32" fill="none" xmlns="http://www.w3.org/2000/svg">
<path d="M16 4C22.7031 4 27.7656 9.625 28 16V22.75C28 25.0469 26.125 26.875 23.875 26.875H18.6719C18.2969 27.5781 17.5469 28 16.75 28H15.2031C13.9844 28 13 27.0156 13 25.75C13 24.5312 13.9844 23.5 15.25 23.5H16.75C17.5469 23.5 18.2969 23.9688 18.6719 24.625H23.875C24.9062 24.625 25.75 23.8281 25.75 22.75V21.8125C25.375 21.9531 24.9531 22 24.5312 22H23.6875C22.75 22 22 21.25 22 20.2656V14.0312C22 13.0469 22.75 12.25 23.6875 12.25H24.5312C24.7188 12.25 24.8594 12.2969 25 12.2969C23.5469 8.78125 20.0312 6.29688 16 6.29688C11.9219 6.29688 8.40625 8.78125 6.95312 12.3438C7.09375 12.2969 7.23438 12.25 7.42188 12.25H8.26562C9.20312 12.25 10 13.0469 10 14.0312V20.2656C10 21.25 9.20312 22 8.26562 22H7.42188C5.5 22 4 20.4531 4 18.5312V16C4.1875 9.625 9.25 4 16 4ZM7.42188 14.5C6.76562 14.5 6.29688 15.0156 6.25 15.6719C6.25 15.8125 6.25 15.9062 6.25 16V18.5312C6.25 19.1875 6.76562 19.75 7.42188 19.75H7.75V14.5H7.42188ZM24.5312 19.75C25.1875 19.75 25.75 19.1875 25.75 18.5312V16C25.75 15.9062 25.7031 15.8125 25.7031 15.6719C25.6562 15.0625 25.1875 14.5 24.5312 14.5H24.25V19.75H24.5312Z" fill="#1B2235"/>
</svg>
