<svg width="16" height="16" viewBox="0 0 16 16" fill="none" xmlns="http://www.w3.org/2000/svg">
<path d="M7.67188 3.04688L7.97266 3.375L8.30078 3.07422C9.20312 2.17188 10.4883 1.76172 11.7188 1.98047C13.6055 2.28125 15 3.92188 15 5.83594V5.97266C15 7.12109 14.5078 8.21484 13.6875 8.98047L8.73828 13.6016C8.54688 13.793 8.27344 13.875 8 13.875C7.69922 13.875 7.42578 13.793 7.23438 13.6016L2.28516 8.98047C1.46484 8.21484 1 7.12109 1 5.97266V5.83594C1 3.92188 2.36719 2.28125 4.25391 1.98047C5.48438 1.76172 6.76953 2.17188 7.67188 3.04688C7.67188 3.07422 7.64453 3.04688 7.67188 3.04688ZM7.97266 5.23438L6.74219 3.97656C6.14062 3.40234 5.29297 3.12891 4.47266 3.26562C3.21484 3.48438 2.3125 4.55078 2.3125 5.83594V5.97266C2.3125 6.76562 2.61328 7.50391 3.1875 8.02344L8 12.5078L12.7852 8.02344C13.3594 7.50391 13.6875 6.76562 13.6875 5.97266V5.83594C13.6875 4.55078 12.7578 3.48438 11.5 3.26562C10.6797 3.12891 9.83203 3.40234 9.23047 3.97656L7.97266 5.23438Z" fill="#1B2235"/>
</svg>
