<svg width="16" height="15" viewBox="0 0 16 15" fill="none" xmlns="http://www.w3.org/2000/svg">
<path d="M6.96094 6C4.63672 6 2.75 3.94922 2.75 1.40625C2.75 1.05078 3.02344 0.75 3.40625 0.75H4.41797C5.92188 0.75 7.23438 1.625 8 2.91016C8.73828 1.625 10.0508 0.75 11.5547 0.75H12.5938C12.9492 0.75 13.25 1.05078 13.25 1.40625C13.25 3.94922 11.3359 6 9.01172 6H8.65625V7.12109C8.65625 7.47656 8.35547 7.75 8 7.75C7.61719 7.75 7.34375 7.47656 7.34375 7.09375V6H6.96094ZM11.5547 2.0625C10.1602 2.0625 8.98438 3.21094 8.71094 4.6875H9.01172C10.4062 4.6875 11.6094 3.56641 11.8555 2.0625H11.5547ZM4.41797 2.0625H4.11719C4.39062 3.56641 5.56641 4.6875 6.96094 4.6875H7.26172C6.98828 3.21094 5.8125 2.0625 4.41797 2.0625ZM15.1914 9.28125C15.6289 9.66406 15.875 10.2109 15.8477 10.7578C15.8477 11.332 15.5742 11.8516 15.1094 12.1797L12.375 14.2578C11.9375 14.5859 11.3906 14.75 10.8438 14.75H0.78125C0.398438 14.75 0.125 14.4219 0.125 14.0938C0.125 13.7383 0.398438 13.4375 0.78125 13.4375H10.8438C11.1172 13.4375 11.3633 13.3555 11.582 13.1914L14.3438 11.1406C14.6172 10.9219 14.6445 10.5391 14.3438 10.293C14.1523 10.1289 13.7969 10.1289 13.5781 10.293L11.9102 11.5508C11.6914 11.7148 11.4453 11.7969 11.1719 11.7969H7.48047C7.28906 11.7969 7.125 11.6328 7.125 11.4141C7.125 11.2227 7.28906 11.0586 7.48047 11.0586H9.12109C9.94141 11.0586 9.91406 9.9375 9.14844 9.9375H5.21094C4.71875 9.9375 4.25391 10.1016 3.87109 10.4023L2.75 11.25H0.78125C0.398438 11.25 0.125 10.9219 0.125 10.5938C0.125 10.2383 0.398438 9.9375 0.78125 9.9375H2.28516L3.07812 9.36328C3.67969 8.89844 4.44531 8.625 5.21094 8.625H9.12109C10.1875 8.625 11.0078 9.44531 11.0078 10.4844H11.1172L12.7578 9.25391C13.2773 8.84375 14.3164 8.57031 15.1914 9.28125Z" fill="white"/>
</svg>
