<svg width="130" height="32" viewBox="0 0 130 32" fill="none" xmlns="http://www.w3.org/2000/svg">
<path d="M65 22.75C61.1172 22.75 58 19.6328 58 15.75C58 11.8945 61.1172 8.75 65 8.75C68.8555 8.75 72 11.8945 72 15.75C72 19.6328 68.8555 22.75 65 22.75ZM63.9062 17.9375C63.5234 17.9375 63.25 18.2383 63.25 18.5938C63.25 18.9766 63.5234 19.25 63.9062 19.25H66.0938C66.4492 19.25 66.75 18.9766 66.75 18.5938C66.75 18.2383 66.4492 17.9375 66.0938 17.9375H65.875V15.5312C65.875 15.1758 65.5742 14.875 65.2188 14.875H63.9062C63.5234 14.875 63.25 15.1758 63.25 15.5312C63.25 15.9141 63.5234 16.1875 63.9062 16.1875H64.5625V17.9375H63.9062ZM65 14C65.4648 14 65.875 13.6172 65.875 13.125C65.875 12.6602 65.4648 12.25 65 12.25C64.5078 12.25 64.125 12.6602 64.125 13.125C64.125 13.6172 64.5078 14 65 14Z" fill="#6C748A"/>
</svg>
