<svg width="16" height="16" viewBox="0 0 16 16" fill="none" xmlns="http://www.w3.org/2000/svg">
<path d="M5.8125 13.1914V12.125H10.1875L10.1602 13.1914C10.1602 13.3281 10.1055 13.5469 10.0234 13.6562L9.55859 14.3672C9.42188 14.5859 9.09375 14.75 8.82031 14.75H7.15234C6.87891 14.75 6.55078 14.5859 6.41406 14.3672L5.94922 13.6562C5.83984 13.5195 5.8125 13.3555 5.8125 13.1914ZM8 0.75C10.6523 0.777344 12.8125 2.91016 12.8125 5.5625C12.8125 6.79297 12.3477 7.88672 11.6094 8.70703C11.1445 9.22656 10.4609 10.3203 10.1875 11.2227C10.1875 11.2227 10.1875 11.2227 10.1875 11.25H5.78516C5.78516 11.2227 5.78516 11.2227 5.78516 11.2227C5.51172 10.3203 4.82812 9.22656 4.36328 8.70703C3.625 7.85938 3.1875 6.76562 3.1875 5.5625C3.1875 3.01953 5.21094 0.777344 8 0.75ZM10.625 7.88672C11.1719 7.23047 11.5 6.41016 11.5 5.5625C11.5 3.64844 9.91406 2.0625 7.97266 2.0625C5.8125 2.08984 4.5 3.86719 4.5 5.5625C4.5 6.41016 4.80078 7.23047 5.34766 7.88672C5.78516 8.35156 6.30469 9.14453 6.6875 9.9375H9.28516C9.66797 9.14453 10.1875 8.35156 10.625 7.88672ZM7.5625 2.9375C7.78125 2.9375 8 3.15625 8 3.40234C8 3.62109 7.78125 3.8125 7.5625 3.8125C6.82422 3.8125 6.25 4.41406 6.25 5.125C6.25 5.37109 6.03125 5.5625 5.8125 5.5625C5.56641 5.5625 5.375 5.37109 5.375 5.125C5.375 3.92188 6.33203 2.9375 7.5625 2.9375Z" fill="#2F69FE"/>
</svg>
