<svg width="10" height="15" viewBox="0 0 10 15" fill="none" xmlns="http://www.w3.org/2000/svg">
<path d="M5.21875 10.8125C5.57422 10.8125 5.875 11.1133 5.875 11.4688C5.875 11.8516 5.57422 12.125 5.21875 12.125C3.63281 12.125 2.375 10.8672 2.375 9.28125C2.375 8.92578 2.64844 8.625 3.03125 8.625C3.38672 8.625 3.6875 8.92578 3.6875 9.28125C3.6875 10.1289 4.37109 10.8125 5.21875 10.8125ZM9.8125 9.5C9.8125 12.1797 7.65234 14.3125 5 14.3125C2.32031 14.3125 0.1875 12.1797 0.1875 9.5C0.1875 7.47656 2.97656 3.21094 4.28906 1.29688C4.64453 0.804688 5.32812 0.804688 5.68359 1.29688C6.99609 3.21094 9.8125 7.47656 9.8125 9.5ZM8.11719 8.13281C7.87109 7.47656 7.51562 6.73828 7.07812 6C6.39453 4.76953 5.60156 3.53906 5 2.60938C4.37109 3.53906 3.57812 4.76953 2.89453 6C2.45703 6.73828 2.10156 7.47656 1.85547 8.13281C1.58203 8.78906 1.5 9.25391 1.5 9.5C1.5 11.4414 3.05859 13 5 13C6.91406 13 8.5 11.4414 8.5 9.5C8.5 9.25391 8.39062 8.78906 8.11719 8.13281Z" fill="#2F69FE"/>
</svg>
