<svg width="16" height="16" viewBox="0 0 16 16" fill="none" xmlns="http://www.w3.org/2000/svg">
<path d="M5.56641 5.5625H6.6875C6.85156 5.5625 7.01562 5.69922 7.09766 5.86328C7.15234 6.02734 7.09766 6.21875 6.96094 6.35547L4.33594 8.54297C4.17188 8.65234 3.95312 8.67969 3.78906 8.54297C3.625 8.43359 3.57031 8.21484 3.65234 8.05078L4.28125 6.4375H3.1875C2.99609 6.4375 2.83203 6.32812 2.75 6.16406C2.69531 6 2.75 5.78125 2.88672 5.67188L5.51172 3.48438C5.67578 3.375 5.89453 3.34766 6.05859 3.48438C6.22266 3.59375 6.27734 3.8125 6.19531 3.97656L5.56641 5.5625ZM1 13.4375V2.5C1 1.54297 1.76562 0.75 2.75 0.75H7.125C8.08203 0.75 8.875 1.54297 8.875 2.5V7.75H9.09375C10.4062 7.75 11.5 8.84375 11.5 10.1562V10.9219C11.5 11.3594 11.8281 11.6875 12.2656 11.6875C12.6758 11.6875 13.0312 11.3594 13.0312 10.9219V8.10547C12.1289 7.83203 11.5 6.98438 11.5 6V4.90625C11.5 4.55078 11.7734 4.25 12.1562 4.25H12.375V2.9375C12.375 2.71875 12.5664 2.5 12.8125 2.5C13.0312 2.5 13.25 2.71875 13.25 2.9375V4.25H14.125V2.9375C14.125 2.71875 14.3164 2.5 14.5625 2.5C14.7812 2.5 15 2.71875 15 2.9375V4.25H15.2188C15.5742 4.25 15.875 4.55078 15.875 4.90625V6C15.875 6.98438 15.2188 7.83203 14.3438 8.10547V10.9219C14.3438 12.0703 13.3867 13 12.2656 13C11.1172 13 10.1875 12.0703 10.1875 10.9219V10.1562C10.1875 9.55469 9.69531 9.0625 9.09375 9.0625H8.875V13.4375H9.09375C9.44922 13.4375 9.75 13.7383 9.75 14.0938C9.75 14.4766 9.44922 14.75 9.09375 14.75H0.78125C0.398438 14.75 0.125 14.4766 0.125 14.0938C0.125 13.7383 0.398438 13.4375 0.78125 13.4375H1ZM2.3125 2.5V13.4375H7.5625V2.5C7.5625 2.28125 7.34375 2.0625 7.125 2.0625H2.75C2.50391 2.0625 2.3125 2.28125 2.3125 2.5ZM13.6875 6.875C14.1523 6.875 14.5625 6.49219 14.5625 6V5.5625H12.8125V6C12.8125 6.49219 13.1953 6.875 13.6875 6.875Z" fill="#2F69FE"/>
</svg>
