<svg width="18" height="16" viewBox="0 0 18 16" fill="none" xmlns="http://www.w3.org/2000/svg">
<path d="M9.4375 14.0938C9.4375 14.4766 9.13672 14.75 8.78125 14.75C8.39844 14.75 8.125 14.4766 8.125 14.0938V2.28125C8.125 1.46094 8.80859 0.75 9.65625 0.75H12.7188C13.5391 0.75 14.25 1.46094 14.25 2.28125V6H15.125V4.03125C15.125 3.67578 15.3984 3.375 15.7812 3.375C16.1367 3.375 16.4375 3.67578 16.4375 4.03125V6.02734C17.1758 6.13672 17.75 6.76562 17.75 7.53125V14.0938C17.75 14.4766 17.4492 14.75 17.0938 14.75C16.7109 14.75 16.4375 14.4766 16.4375 14.0938V7.53125C16.4375 7.42188 16.3281 7.3125 16.2188 7.3125H12.9375V2.28125C12.9375 2.17188 12.8281 2.0625 12.7188 2.0625H9.65625C9.51953 2.0625 9.4375 2.17188 9.4375 2.28125V14.0938ZM10.3125 3.375C10.3125 3.15625 10.5039 2.9375 10.75 2.9375H11.625C11.8438 2.9375 12.0625 3.15625 12.0625 3.375V4.25C12.0625 4.49609 11.8438 4.6875 11.625 4.6875H10.75C10.5039 4.6875 10.3125 4.49609 10.3125 4.25V3.375ZM11.625 5.5625C11.8438 5.5625 12.0625 5.78125 12.0625 6V6.875C12.0625 7.12109 11.8438 7.3125 11.625 7.3125H10.75C10.5039 7.3125 10.3125 7.12109 10.3125 6.875V6C10.3125 5.78125 10.5039 5.5625 10.75 5.5625H11.625ZM10.3125 8.625C10.3125 8.40625 10.5039 8.1875 10.75 8.1875H11.625C11.8438 8.1875 12.0625 8.40625 12.0625 8.625V9.5C12.0625 9.74609 11.8438 9.9375 11.625 9.9375H10.75C10.5039 9.9375 10.3125 9.74609 10.3125 9.5V8.625ZM15.125 8.1875C15.3438 8.1875 15.5625 8.40625 15.5625 8.625V9.5C15.5625 9.74609 15.3438 9.9375 15.125 9.9375H14.25C14.0039 9.9375 13.8125 9.74609 13.8125 9.5V8.625C13.8125 8.40625 14.0039 8.1875 14.25 8.1875H15.125ZM13.8125 11.25C13.8125 11.0312 14.0039 10.8125 14.25 10.8125H15.125C15.3438 10.8125 15.5625 11.0312 15.5625 11.25V12.125C15.5625 12.3711 15.3438 12.5625 15.125 12.5625H14.25C14.0039 12.5625 13.8125 12.3711 13.8125 12.125V11.25ZM6.375 5.125C6.375 5.28906 6.34766 5.42578 6.32031 5.5625C6.86719 5.94531 7.25 6.60156 7.25 7.3125C7.25 8.54297 6.26562 9.5 5.0625 9.5H4.625V13.875C4.625 14.3672 4.21484 14.75 3.75 14.75C3.25781 14.75 2.875 14.3672 2.875 13.875V9.5H2.4375C1.20703 9.5 0.25 8.54297 0.25 7.3125C0.25 6.60156 0.605469 5.94531 1.15234 5.5625C1.125 5.42578 1.125 5.28906 1.125 5.125C1.125 3.67578 2.27344 2.5 3.75 2.5C5.19922 2.5 6.375 3.67578 6.375 5.125Z" fill="#2F69FE"/>
</svg>
