<svg width="18" height="15" viewBox="0 0 18 15" fill="none" xmlns="http://www.w3.org/2000/svg">
<path d="M11.625 2.5V7.75C11.625 8.73438 10.832 9.5 9.875 9.5H6.375L3.39453 11.1953C3.3125 11.25 3.25781 11.25 3.20312 11.25C3.01172 11.25 2.875 11.1406 2.875 10.9219V9.5H2C1.01562 9.5 0.25 8.73438 0.25 7.75V2.5C0.25 1.54297 1.01562 0.75 2 0.75H9.875C10.832 0.75 11.625 1.54297 11.625 2.5ZM4.1875 9.25391L6.01953 8.1875H9.875C10.0938 8.1875 10.3125 7.99609 10.3125 7.75V2.5C10.3125 2.28125 10.0938 2.0625 9.875 2.0625H2C1.75391 2.0625 1.5625 2.28125 1.5625 2.5V7.75C1.5625 7.99609 1.75391 8.1875 2 8.1875H4.1875V9.25391ZM7.25 11.25V10.375H8.5625V11.25C8.5625 11.4961 8.75391 11.6875 9 11.6875H11.9531L13.8125 12.7539V11.6875H16C16.2188 11.6875 16.4375 11.4961 16.4375 11.25V6C16.4375 5.78125 16.2188 5.5625 16 5.5625H12.5V4.25H16C16.957 4.25 17.75 5.04297 17.75 6V11.25C17.75 12.2344 16.957 13 16 13H15.125V14.4219C15.125 14.6406 14.9609 14.75 14.7969 14.75C14.7148 14.75 14.6602 14.75 14.5781 14.6953L11.625 13H9C8.01562 13 7.25 12.2344 7.25 11.25Z" fill="#576079"/>
</svg>
