<svg width="13" height="15" viewBox="0 0 13 15" fill="none" xmlns="http://www.w3.org/2000/svg">
<path d="M7.64587 9.0625C10.2982 9.0625 12.4584 11.2227 12.4584 13.875C12.4584 14.3672 12.0482 14.75 11.5834 14.75H1.08337C0.591187 14.75 0.208374 14.3672 0.208374 13.875C0.208374 11.2227 2.34119 9.0625 5.02087 9.0625H7.64587ZM1.52087 13.4375H11.1185C10.8998 11.7148 9.42322 10.375 7.64587 10.375H5.02087C3.21619 10.375 1.73962 11.7148 1.52087 13.4375ZM6.33337 7.75C4.39197 7.75 2.83337 6.19141 2.83337 4.25C2.83337 2.33594 4.39197 0.75 6.33337 0.75C8.24744 0.75 9.83337 2.33594 9.83337 4.25C9.83337 6.19141 8.24744 7.75 6.33337 7.75ZM6.33337 2.0625C5.10291 2.0625 4.14587 3.04688 4.14587 4.25C4.14587 5.48047 5.10291 6.4375 6.33337 6.4375C7.5365 6.4375 8.52087 5.48047 8.52087 4.25C8.52087 3.04688 7.5365 2.0625 6.33337 2.0625Z" fill="#576079"/>
</svg>
