<svg width="32" height="32" viewBox="0 0 32 32" fill="none" xmlns="http://www.w3.org/2000/svg">
<rect width="32" height="32" rx="16" fill="#E8F2FF"/>
<path d="M14.9609 14C12.6367 14 10.75 11.9492 10.75 9.40625C10.75 9.05078 11.0234 8.75 11.4062 8.75H12.418C13.9219 8.75 15.2344 9.625 16 10.9102C16.7383 9.625 18.0508 8.75 19.5547 8.75H20.5938C20.9492 8.75 21.25 9.05078 21.25 9.40625C21.25 11.9492 19.3359 14 17.0117 14H16.6562V15.1211C16.6562 15.4766 16.3555 15.75 16 15.75C15.6172 15.75 15.3438 15.4766 15.3438 15.0938V14H14.9609ZM19.5547 10.0625C18.1602 10.0625 16.9844 11.2109 16.7109 12.6875H17.0117C18.4062 12.6875 19.6094 11.5664 19.8555 10.0625H19.5547ZM12.418 10.0625H12.1172C12.3906 11.5664 13.5664 12.6875 14.9609 12.6875H15.2617C14.9883 11.2109 13.8125 10.0625 12.418 10.0625ZM23.1914 17.2812C23.6289 17.6641 23.875 18.2109 23.8477 18.7578C23.8477 19.332 23.5742 19.8516 23.1094 20.1797L20.375 22.2578C19.9375 22.5859 19.3906 22.75 18.8438 22.75H8.78125C8.39844 22.75 8.125 22.4219 8.125 22.0938C8.125 21.7383 8.39844 21.4375 8.78125 21.4375H18.8438C19.1172 21.4375 19.3633 21.3555 19.582 21.1914L22.3438 19.1406C22.6172 18.9219 22.6445 18.5391 22.3438 18.293C22.1523 18.1289 21.7969 18.1289 21.5781 18.293L19.9102 19.5508C19.6914 19.7148 19.4453 19.7969 19.1719 19.7969H15.4805C15.2891 19.7969 15.125 19.6328 15.125 19.4141C15.125 19.2227 15.2891 19.0586 15.4805 19.0586H17.1211C17.9414 19.0586 17.9141 17.9375 17.1484 17.9375H13.2109C12.7188 17.9375 12.2539 18.1016 11.8711 18.4023L10.75 19.25H8.78125C8.39844 19.25 8.125 18.9219 8.125 18.5938C8.125 18.2383 8.39844 17.9375 8.78125 17.9375H10.2852L11.0781 17.3633C11.6797 16.8984 12.4453 16.625 13.2109 16.625H17.1211C18.1875 16.625 19.0078 17.4453 19.0078 18.4844H19.1172L20.7578 17.2539C21.2773 16.8438 22.3164 16.5703 23.1914 17.2812Z" fill="#2F69FE"/>
</svg>
