<svg width="40" height="40" viewBox="0 0 40 40" fill="none" xmlns="http://www.w3.org/2000/svg">
<rect width="40" height="40" rx="8" fill="#12B76A"/>
<path d="M27.0312 11.75H30V12.6875C30 17.6875 26.4062 21.75 21.9922 21.75H20.9375V28.3125C20.9375 28.8594 20.4297 29.25 19.9609 29.25C19.4531 29.25 19.0625 28.8594 19.0625 28.3125V24.25H17.9688C13.5547 24.25 10 20.1875 10 15.1875V14.25H12.9297C15.625 14.25 17.9688 15.7734 19.4141 18.0781C20.4688 14.4062 23.4766 11.75 27.0312 11.75ZM17.9688 22.375H18.9844C18.5938 18.8594 16.0156 16.125 12.9297 16.125H11.9141C12.3047 19.6797 14.8828 22.375 17.9688 22.375ZM21.9922 19.875C25.0781 19.875 27.6562 17.1797 28.0469 13.625H27.0312C23.9453 13.625 21.3672 16.3594 20.9766 19.875H21.9922Z" fill="white"/>
</svg>
