<svg width="14" height="13" viewBox="0 0 14 13" fill="none" xmlns="http://www.w3.org/2000/svg">
<path d="M11.9219 0.625H14V1.28125C14 4.78125 11.4844 7.625 8.39453 7.625H7.65625V12.2188C7.65625 12.6016 7.30078 12.875 6.97266 12.875C6.61719 12.875 6.34375 12.6016 6.34375 12.2188V9.375H5.57812C2.48828 9.375 0 6.53125 0 3.03125V2.375H2.05078C3.9375 2.375 5.57812 3.44141 6.58984 5.05469C7.32812 2.48438 9.43359 0.625 11.9219 0.625ZM5.57812 8.0625H6.28906C6.01562 5.60156 4.21094 3.6875 2.05078 3.6875H1.33984C1.61328 6.17578 3.41797 8.0625 5.57812 8.0625ZM8.39453 6.3125C10.5547 6.3125 12.3594 4.42578 12.6328 1.9375H11.9219C9.76172 1.9375 7.95703 3.85156 7.68359 6.3125H8.39453Z" fill="white"/>
</svg>
