<svg width="16" height="16" viewBox="0 0 16 16" fill="none" xmlns="http://www.w3.org/2000/svg">
<path d="M12.5938 0.75C12.9492 0.75 13.25 1.05078 13.25 1.40625C13.25 1.78906 12.9492 2.0625 12.5938 2.0625H12.375V2.58203C12.375 3.70312 11.9102 4.74219 11.1445 5.53516L8.90234 7.75L11.1445 9.99219C11.9102 10.7578 12.375 11.8242 12.375 12.918V13.4375H12.5938C12.9492 13.4375 13.25 13.7383 13.25 14.0938C13.25 14.4766 12.9492 14.75 12.5938 14.75H3.40625C3.02344 14.75 2.75 14.4766 2.75 14.0938C2.75 13.7383 3.02344 13.4375 3.40625 13.4375H3.625V12.918C3.625 11.8242 4.0625 10.7578 4.82812 9.99219L7.07031 7.75L4.82812 5.53516C4.0625 4.74219 3.625 3.70312 3.625 2.58203V2.0625H3.40625C3.02344 2.0625 2.75 1.78906 2.75 1.40625C2.75 1.05078 3.02344 0.75 3.40625 0.75H12.5938ZM8 8.67969L5.75781 10.9219C5.21094 11.4414 4.9375 12.1797 4.9375 12.918V13.4375H11.0625V12.918C11.0625 12.1797 10.7617 11.4414 10.2148 10.9219L8 8.67969ZM8 6.84766L10.2148 4.60547C10.7617 4.05859 11.0625 3.34766 11.0625 2.58203V2.0625H4.9375V2.58203C4.9375 3.34766 5.21094 4.05859 5.75781 4.60547L8 6.84766Z" fill="#F79009"/>
</svg>
