<svg width="13" height="15" viewBox="0 0 13 15" fill="none" xmlns="http://www.w3.org/2000/svg">
<path d="M12.125 2.71875V14.0938C12.125 14.2852 12.043 14.4492 11.9062 14.5586C11.7969 14.6953 11.6328 14.75 11.4688 14.75C11.2773 14.75 11.1133 14.6953 11.0039 14.5586C10.8672 14.4492 10.8125 14.2852 10.8125 14.0938V10.375H9.47266C9.22656 10.375 9.00781 10.3477 8.78906 10.2656C8.57031 10.1562 8.37891 10.0469 8.21484 9.88281C8.05078 9.71875 7.94141 9.5 7.83203 9.30859C7.75 9.08984 7.72266 8.84375 7.72266 8.625L7.75 5.50781C7.72266 4.49609 8.05078 3.51172 8.59766 2.69141C9.17188 1.84375 9.96484 1.21484 10.9219 0.832031C11.0039 0.777344 11.1133 0.777344 11.25 0.75C11.4688 0.75 11.6875 0.859375 11.8516 1.02344C12.0156 1.1875 12.125 1.40625 12.125 1.625V2.71875ZM10.8125 2.36328C10.2656 2.69141 9.82812 3.15625 9.5 3.70312C9.19922 4.25 9.03516 4.87891 9.0625 5.50781L9.03516 8.625C9.03516 8.76172 9.0625 8.87109 9.14453 8.95312C9.22656 9.03516 9.33594 9.0625 9.47266 9.0625H10.7852L10.8125 2.36328ZM6.4375 0.96875C6.57422 1.07812 6.65625 1.24219 6.65625 1.40625V5.78125C6.62891 6.4375 6.38281 7.03906 5.94531 7.50391C5.48047 7.94141 4.87891 8.1875 4.25 8.1875H4.03125V14.0938C4.03125 14.2852 3.94922 14.4492 3.8125 14.5586C3.70312 14.6953 3.53906 14.75 3.375 14.75C3.18359 14.75 3.01953 14.6953 2.91016 14.5586C2.77344 14.4492 2.71875 14.2852 2.71875 14.0938V8.1875H2.5C1.84375 8.1875 1.24219 7.94141 0.777344 7.50391C0.339844 7.03906 0.09375 6.4375 0.09375 5.78125V1.40625C0.09375 1.24219 0.148438 1.07812 0.285156 0.96875C0.394531 0.832031 0.558594 0.75 0.75 0.75C0.914062 0.75 1.07812 0.832031 1.1875 0.96875C1.32422 1.07812 1.40625 1.24219 1.40625 1.40625V4.6875H2.71875V1.46094C2.71875 1.29688 2.77344 1.13281 2.91016 0.996094C3.01953 0.886719 3.18359 0.804688 3.375 0.804688C3.53906 0.804688 3.70312 0.886719 3.8125 0.996094C3.94922 1.13281 4.03125 1.29688 4.03125 1.46094V4.6875H5.34375V1.40625C5.34375 1.24219 5.39844 1.07812 5.53516 0.96875C5.64453 0.832031 5.80859 0.75 6 0.75C6.16406 0.75 6.32812 0.832031 6.4375 0.96875ZM4.90625 6.62891C5.09766 6.46484 5.23438 6.24609 5.28906 6H1.43359C1.48828 6.24609 1.625 6.46484 1.81641 6.62891C2.00781 6.79297 2.22656 6.875 2.5 6.875H4.25C4.49609 6.875 4.71484 6.79297 4.90625 6.62891Z" fill="#424C69"/>
</svg>
