<svg width="14" height="15" viewBox="0 0 14 15" fill="none" xmlns="http://www.w3.org/2000/svg">
<path d="M5.90625 9.5C5.90625 8.89844 6.37109 8.40625 7 8.40625C7.60156 8.40625 8.09375 8.89844 8.09375 9.5C8.09375 10.1289 7.60156 10.5938 7 10.5938C6.37109 10.5938 5.90625 10.1289 5.90625 9.5ZM10.5 0.75C11.9492 0.75 13.125 1.92578 13.125 3.375V10.375C13.125 11.5508 12.3594 12.5352 11.293 12.8906L12.0312 13.6289C12.3047 13.9023 12.3047 14.3125 12.0312 14.5586C11.7852 14.832 11.375 14.832 11.1289 14.5586L9.57031 13H4.40234L2.84375 14.5586C2.59766 14.832 2.1875 14.832 1.94141 14.5586C1.66797 14.3125 1.66797 13.9023 1.94141 13.6289L2.67969 12.8906C1.61328 12.5352 0.875 11.5508 0.875 10.375V3.375C0.875 1.92578 2.02344 0.75 3.5 0.75H10.5ZM10.5 2.0625H3.5C2.76172 2.0625 2.1875 2.66406 2.1875 3.375V6H11.8125V3.375C11.8125 2.66406 11.2109 2.0625 10.5 2.0625ZM3.5 11.6875H10.5C11.2109 11.6875 11.8125 11.1133 11.8125 10.375V7.3125H2.1875V10.375C2.1875 11.1133 2.76172 11.6875 3.5 11.6875Z" fill="#424C69"/>
</svg>
