<svg width="18" height="16" viewBox="0 0 18 16" fill="none" xmlns="http://www.w3.org/2000/svg">
<path d="M4.1875 6.875C4.40625 6.875 4.625 7.09375 4.625 7.3125V8.1875C4.625 8.43359 4.40625 8.625 4.1875 8.625H3.3125C3.06641 8.625 2.875 8.43359 2.875 8.1875V7.3125C2.875 7.09375 3.06641 6.875 3.3125 6.875H4.1875ZM13.375 7.3125C13.375 7.09375 13.5664 6.875 13.8125 6.875H14.6875C14.9062 6.875 15.125 7.09375 15.125 7.3125V8.1875C15.125 8.43359 14.9062 8.625 14.6875 8.625H13.8125C13.5664 8.625 13.375 8.43359 13.375 8.1875V7.3125ZM4.1875 9.5C4.40625 9.5 4.625 9.71875 4.625 9.9375V11.6875C4.625 11.9336 4.40625 12.125 4.1875 12.125H3.3125C3.06641 12.125 2.875 11.9336 2.875 11.6875V9.9375C2.875 9.71875 3.06641 9.5 3.3125 9.5H4.1875ZM13.375 9.9375C13.375 9.71875 13.5664 9.5 13.8125 9.5H14.6875C14.9062 9.5 15.125 9.71875 15.125 9.9375V11.6875C15.125 11.9336 14.9062 12.125 14.6875 12.125H13.8125C13.5664 12.125 13.375 11.9336 13.375 11.6875V9.9375ZM11.1875 6C11.1875 7.23047 10.2031 8.1875 9 8.1875C7.76953 8.1875 6.8125 7.23047 6.8125 6C6.8125 4.79688 7.76953 3.8125 9 3.8125C10.2031 3.8125 11.1875 4.79688 11.1875 6ZM8.5625 5.125V6C8.5625 6.24609 8.75391 6.4375 9 6.4375H9.65625C9.875 6.4375 10.0938 6.24609 10.0938 6C10.0938 5.78125 9.875 5.5625 9.65625 5.5625H9.4375V5.125C9.4375 4.90625 9.21875 4.6875 9 4.6875C8.75391 4.6875 8.5625 4.90625 8.5625 5.125ZM8.58984 0.914062C8.80859 0.722656 9.16406 0.722656 9.38281 0.914062L13.1836 3.86719L16.082 4.30469C17.0391 4.46875 17.75 5.28906 17.75 6.24609V12.7812C17.75 13.875 16.8477 14.75 15.7812 14.75H2.21875C1.125 14.75 0.25 13.875 0.25 12.7812V6.24609C0.25 5.28906 0.933594 4.46875 1.89062 4.30469L4.78906 3.86719L8.58984 0.914062ZM16.4375 12.7812V6.24609C16.4375 5.94531 16.1914 5.67188 15.8633 5.61719L12.8281 5.125C12.7188 5.125 12.6094 5.07031 12.5273 4.98828L9 2.25391L5.44531 4.98828C5.36328 5.07031 5.25391 5.125 5.14453 5.125L2.10938 5.61719C1.78125 5.67188 1.5625 5.94531 1.5625 6.24609V12.7812C1.5625 13.1641 1.83594 13.4375 2.21875 13.4375H7.25V11.25C7.25 10.293 8.01562 9.5 9 9.5C9.95703 9.5 10.75 10.293 10.75 11.25V13.4375H15.7812C16.1367 13.4375 16.4375 13.1641 16.4375 12.7812Z" fill="#424C69"/>
</svg>
