<svg width="18" height="16" viewBox="0 0 18 16" fill="none" xmlns="http://www.w3.org/2000/svg">
<path d="M1.5625 9.9375H8.125V5.78125C8.125 4.96094 8.80859 4.25 9.65625 4.25H14.4688C16.2734 4.25 17.75 5.72656 17.75 7.53125V13.4375C17.75 13.8203 17.4492 14.0938 17.0938 14.0938C16.7109 14.0938 16.4375 13.8203 16.4375 13.4375V11.25H1.5625V13.2188C1.5625 13.6016 1.26172 13.875 0.90625 13.875C0.523438 13.875 0.25 13.6016 0.25 13.2188V2.28125C0.25 1.92578 0.523438 1.625 0.90625 1.625C1.26172 1.625 1.5625 1.92578 1.5625 2.28125V9.9375ZM14.4688 5.5625H9.65625C9.51953 5.5625 9.4375 5.67188 9.4375 5.78125V9.9375H16.4375V7.53125C16.4375 6.46484 15.5352 5.5625 14.4688 5.5625ZM7.25 6.65625C7.25 7.99609 6.15625 9.0625 4.84375 9.0625C3.50391 9.0625 2.4375 7.99609 2.4375 6.65625C2.4375 5.34375 3.50391 4.25 4.84375 4.25C6.15625 4.25 7.25 5.34375 7.25 6.65625ZM4.84375 5.5625C4.21484 5.5625 3.75 6.05469 3.75 6.65625C3.75 7.28516 4.21484 7.75 4.84375 7.75C5.44531 7.75 5.9375 7.28516 5.9375 6.65625C5.9375 6.05469 5.44531 5.5625 4.84375 5.5625Z" fill="#424C69"/>
</svg>
