<svg width="18" height="13" viewBox="0 0 18 13" fill="none" xmlns="http://www.w3.org/2000/svg">
<path d="M14.25 0.625C16.2734 0.625 17.9141 2.40234 17.7227 4.48047C17.5312 6.3125 15.918 7.625 14.0859 7.625H13.375C13.375 9.07422 12.1992 10.25 10.75 10.25H5.5C4.02344 10.25 2.875 9.10156 2.875 7.625V1.0625C2.875 0.84375 3.06641 0.625 3.3125 0.625H14.25ZM12.0625 7.625V1.9375H4.1875V7.625C4.1875 8.36328 4.76172 8.9375 5.5 8.9375H10.75C11.4609 8.9375 12.0625 8.36328 12.0625 7.625ZM14.25 6.3125C15.4531 6.3125 16.4375 5.35547 16.4375 4.125C16.4375 2.92188 15.4531 1.9375 14.25 1.9375H13.375V6.3125H14.25ZM15.3438 11.5625C15.6992 11.5625 16 11.8633 16 12.2188C16 12.6016 15.6992 12.875 15.3438 12.875H0.90625C0.523438 12.875 0.25 12.6016 0.25 12.2188C0.25 11.8633 0.523438 11.5625 0.90625 11.5625H15.3438Z" fill="#424C69"/>
</svg>
