<svg width="16" height="16" viewBox="0 0 16 16" fill="none" xmlns="http://www.w3.org/2000/svg">
<path d="M8.65625 2.77344C9.39453 2.85547 10.0781 2.99219 10.5977 3.10156C10.9531 3.21094 11.1719 3.53906 11.0898 3.89453C11.0078 4.25 10.6523 4.46875 10.2969 4.38672C9.44922 4.19531 8.21875 3.94922 7.17969 4.05859C6.66016 4.08594 6.25 4.19531 5.94922 4.38672C5.67578 4.57812 5.45703 4.82422 5.40234 5.23438C5.32031 5.53516 5.375 5.75391 5.45703 5.89062C5.51172 6.05469 5.67578 6.21875 5.92188 6.35547C6.44141 6.68359 7.20703 6.90234 8.13672 7.12109L8.21875 7.14844C9.06641 7.36719 10.0234 7.61328 10.7617 8.05078C11.1445 8.29688 11.4727 8.59766 11.6914 9.03516C11.9375 9.47266 11.9648 9.99219 11.8828 10.5391C11.6914 11.5234 10.9805 12.1523 10.1055 12.4805C9.66797 12.6445 9.17578 12.7539 8.65625 12.7812V14.0938C8.65625 14.4766 8.35547 14.75 8 14.75C7.61719 14.75 7.34375 14.4766 7.34375 14.0938V12.7539C7.23438 12.7266 7.15234 12.7266 7.07031 12.7266L7.04297 12.6992C6.38672 12.6172 5.18359 12.3438 4.44531 12.0156C4.11719 11.8516 3.95312 11.4688 4.11719 11.1406C4.25391 10.8125 4.63672 10.6484 4.96484 10.8125C5.53906 11.0586 6.63281 11.332 7.23438 11.4141C8.21875 11.5508 9.03906 11.4688 9.64062 11.25C10.2148 11.0312 10.5156 10.7031 10.5703 10.293C10.6523 9.96484 10.5977 9.77344 10.5156 9.63672C10.4609 9.47266 10.2969 9.30859 10.0508 9.17188C9.53125 8.84375 8.76562 8.625 7.83594 8.40625L7.75391 8.37891C6.90625 8.16016 5.94922 7.91406 5.21094 7.47656C4.82812 7.23047 4.5 6.92969 4.28125 6.49219C4.03516 6.02734 4.00781 5.53516 4.08984 4.98828C4.25391 4.19531 4.66406 3.64844 5.23828 3.29297C5.78516 2.9375 6.44141 2.80078 7.07031 2.74609C7.15234 2.74609 7.23438 2.71875 7.34375 2.71875V1.40625C7.34375 1.05078 7.61719 0.75 8 0.75C8.35547 0.75 8.65625 1.05078 8.65625 1.40625V2.77344Z" fill="#424C69"/>
</svg>
