<svg width="40" height="40" viewBox="0 0 40 40" fill="none" xmlns="http://www.w3.org/2000/svg">
<rect width="40" height="40" rx="8" fill="#2D3858"/>
<path d="M29.6875 28.8984C30.0781 29.2891 30.0781 29.875 29.6875 30.2266C29.5312 30.4219 29.2969 30.5 29.0625 30.5C28.7891 30.5 28.5547 30.4219 28.3594 30.2266L23.125 24.9922C21.7188 26.125 19.9609 26.75 18.0859 26.75C13.6328 26.75 10 23.1172 10 18.625C10 14.1719 13.5938 10.5 18.0859 10.5C22.5391 10.5 26.2109 14.1719 26.2109 18.625C26.2109 20.5391 25.5859 22.2969 24.4531 23.6641L29.6875 28.8984ZM11.875 18.625C11.875 22.1016 14.6484 24.875 18.125 24.875C21.5625 24.875 24.375 22.1016 24.375 18.625C24.375 15.1875 21.5625 12.375 18.125 12.375C14.6484 12.375 11.875 15.1875 11.875 18.625Z" fill="white"/>
</svg>
