<svg width="16" height="16" viewBox="0 0 16 16" fill="none" xmlns="http://www.w3.org/2000/svg">
<path d="M14.125 4.25C14.125 5.69922 12.9492 6.875 11.5 6.875C10.707 6.875 9.99609 6.54688 9.50391 5.97266L7.04297 7.20312C7.09766 7.39453 7.09766 7.58594 7.09766 7.75C7.09766 7.94141 7.09766 8.13281 7.04297 8.32422L9.50391 9.52734C9.99609 8.98047 10.707 8.625 11.5 8.625C12.9492 8.625 14.125 9.80078 14.125 11.25C14.125 12.6992 12.9492 13.875 11.5 13.875C10.0234 13.875 8.875 12.6992 8.875 11.25C8.875 11.0859 8.875 10.8945 8.92969 10.7031L6.46875 9.47266C5.97656 10.0469 5.26562 10.375 4.5 10.375C3.02344 10.375 1.875 9.19922 1.875 7.75C1.875 6.30078 3.02344 5.125 4.5 5.125C5.26562 5.125 5.97656 5.48047 6.46875 6.02734L8.92969 4.82422C8.875 4.63281 8.875 4.44141 8.875 4.25C8.875 2.80078 10.0234 1.625 11.5 1.625C12.9492 1.625 14.125 2.80078 14.125 4.25ZM4.47266 9.0625C5.21094 9.0625 5.78516 8.48828 5.78516 7.75C5.78516 7.03906 5.21094 6.4375 4.47266 6.4375C3.76172 6.4375 3.16016 7.03906 3.16016 7.75C3.16016 8.48828 3.76172 9.0625 4.47266 9.0625ZM11.5 2.9375C10.7617 2.9375 10.1875 3.53906 10.1875 4.25C10.1875 4.98828 10.7617 5.5625 11.5 5.5625C12.2109 5.5625 12.8125 4.98828 12.8125 4.25C12.8125 3.53906 12.2109 2.9375 11.5 2.9375ZM11.5 12.5625C12.2109 12.5625 12.8125 11.9883 12.8125 11.25C12.8125 10.5391 12.2109 9.9375 11.5 9.9375C10.7617 9.9375 10.1875 10.5391 10.1875 11.25C10.1875 11.9883 10.7617 12.5625 11.5 12.5625Z" fill="#1B2235"/>
</svg>
