<svg width="16" height="16" viewBox="0 0 16 16" fill="none" xmlns="http://www.w3.org/2000/svg">
<path d="M9.55859 4.35938C9.72266 4.46875 9.77734 4.6875 9.69531 4.87891L8.65625 7.3125H10.4062C10.5703 7.3125 10.7344 7.44922 10.8164 7.61328C10.8711 7.77734 10.8164 7.99609 10.6797 8.10547L6.96094 11.168C6.79688 11.2773 6.57812 11.3047 6.41406 11.168C6.25 11.0586 6.19531 10.8398 6.27734 10.6484L7.31641 8.1875H5.59375C5.40234 8.1875 5.23828 8.07812 5.15625 7.91406C5.10156 7.72266 5.15625 7.53125 5.29297 7.42188L9.01172 4.35938C9.17578 4.22266 9.39453 4.22266 9.55859 4.35938ZM1.875 3.375C1.875 2.41797 2.64062 1.625 3.625 1.625H12.375C13.332 1.625 14.125 2.41797 14.125 3.375V12.125C14.125 13.1094 13.332 13.875 12.375 13.875H3.625C2.64062 13.875 1.875 13.1094 1.875 12.125V3.375ZM3.1875 3.375V12.125C3.1875 12.3711 3.37891 12.5625 3.625 12.5625H12.375C12.5938 12.5625 12.8125 12.3711 12.8125 12.125V3.375C12.8125 3.15625 12.5938 2.9375 12.375 2.9375H3.625C3.37891 2.9375 3.1875 3.15625 3.1875 3.375Z" fill="#424C69"/>
</svg>
