<svg width="18" height="16" viewBox="0 0 18 16" fill="none" xmlns="http://www.w3.org/2000/svg">
<path d="M15.8086 5.34375C16 5.53516 16.0273 5.80859 15.9453 6.05469C15.8359 6.30078 15.5898 6.4375 15.3438 6.4375H14.0039L16.6836 9.28125C16.875 9.47266 16.9023 9.74609 16.8203 9.99219C16.7109 10.2383 16.4648 10.375 16.2188 10.375H14.7695L17.5859 13.6836C17.75 13.875 17.7773 14.1484 17.668 14.3945C17.5586 14.6133 17.3398 14.75 17.0938 14.75H11.1875C11.4609 14.3945 11.625 13.9297 11.625 13.4375H15.6719L12.8555 10.1562C12.6914 9.96484 12.6641 9.69141 12.7734 9.44531C12.8828 9.22656 13.1016 9.0625 13.375 9.0625H14.6875L12.0078 6.24609C11.8164 6.05469 11.7891 5.78125 11.8711 5.53516C11.9805 5.28906 12.2266 5.125 12.5 5.125H13.8125L11.1875 2.36328L8.83594 4.82422L7.87891 3.94922L10.6953 0.96875C10.832 0.832031 10.9961 0.75 11.1875 0.75C11.3516 0.75 11.5156 0.832031 11.6523 0.96875L15.8086 5.34375ZM4.1875 8.84375C4.1875 8.48828 4.46094 8.1875 4.84375 8.1875H6.15625C6.51172 8.1875 6.8125 8.48828 6.8125 8.84375V10.1562C6.8125 10.5391 6.51172 10.8125 6.15625 10.8125H4.84375C4.46094 10.8125 4.1875 10.5391 4.1875 10.1562V8.84375ZM4.29688 4.03125C4.98047 3.42969 5.99219 3.42969 6.67578 4.03125L10.1758 7.23047C10.5312 7.58594 10.75 8.05078 10.75 8.54297V13C10.75 13.9844 9.95703 14.75 9 14.75H2C1.01562 14.75 0.25 13.9844 0.25 13V8.54297C0.25 8.05078 0.441406 7.58594 0.796875 7.23047L4.29688 4.03125ZM1.5625 8.54297V13C1.5625 13.2461 1.75391 13.4375 2 13.4375H9C9.21875 13.4375 9.4375 13.2461 9.4375 13V8.54297C9.4375 8.40625 9.38281 8.29688 9.27344 8.21484L5.77344 4.98828C5.60938 4.85156 5.36328 4.85156 5.19922 4.98828L1.69922 8.21484C1.58984 8.29688 1.5625 8.40625 1.5625 8.54297Z" fill="#424C69"/>
</svg>
