<svg width="15" height="15" viewBox="0 0 15 15" fill="none" xmlns="http://www.w3.org/2000/svg">
<path d="M7.41541 3.10156C7.36072 3.07422 7.33337 3.01953 7.33337 2.96484C7.33337 2.88281 7.36072 2.82812 7.41541 2.80078L8.78259 2.22656L9.35681 0.859375C9.38416 0.804688 9.43884 0.75 9.52087 0.75C9.57556 0.75 9.63025 0.804688 9.65759 0.859375L10.2318 2.22656L11.599 2.77344C11.6537 2.82812 11.681 2.88281 11.681 2.9375C11.681 3.01953 11.6537 3.07422 11.599 3.10156L10.2318 3.67578L9.65759 5.04297C9.63025 5.09766 9.57556 5.15234 9.49353 5.15234C9.43884 5.15234 9.38416 5.09766 9.32947 5.04297L8.78259 3.67578L7.41541 3.10156ZM14.2513 6.76562C14.2787 6.79297 14.3334 6.82031 14.3334 6.875C14.3334 6.92969 14.2787 6.98438 14.224 7.01172L13.1576 7.47656L12.6927 8.57031C12.6654 8.59766 12.6107 8.65234 12.556 8.65234C12.5013 8.65234 12.474 8.59766 12.4467 8.57031L11.9818 7.47656L10.9154 7.01172C10.8607 6.98438 10.806 6.95703 10.806 6.90234C10.806 6.84766 10.8607 6.79297 10.9154 6.76562L11.9818 6.30078L12.4467 5.23438C12.474 5.17969 12.5287 5.15234 12.5834 5.15234C12.6381 5.15234 12.6654 5.17969 12.6927 5.23438L13.1576 6.30078L14.2513 6.76562ZM10.2865 8.07812C10.806 8.13281 10.9974 8.78906 10.642 9.14453L8.56384 11.168L9.05603 14.0391C9.08337 14.2578 9.00134 14.5039 8.78259 14.6406C8.59119 14.7773 8.34509 14.8047 8.12634 14.6953L5.58337 13.3281L3.01306 14.6953C2.90369 14.75 2.82166 14.75 2.71228 14.75C2.35681 14.75 2.02869 14.4219 2.11072 14.0391L2.57556 11.168L0.52478 9.14453C0.141968 8.78906 0.333374 8.13281 0.852905 8.07812L3.724 7.64062L5.00916 5.04297C5.11853 4.82422 5.33728 4.6875 5.55603 4.6875C5.80212 4.6875 6.02087 4.82422 6.13025 5.04297L7.41541 7.64062L10.2865 8.07812ZM7.14197 10.7031L8.72791 9.17188L6.54041 8.84375L5.58337 6.875L4.599 8.84375L2.4115 9.17188L3.99744 10.7031L3.61462 12.8906L5.58337 11.8516L7.52478 12.8906L7.14197 10.7031Z" fill="white"/>
</svg>
