<svg width="24" height="24" viewBox="0 0 24 24" fill="none" xmlns="http://www.w3.org/2000/svg">
<path d="M21 5C20.298 5.4051 18.8895 5.95719 18.0615 6.11643C18.0372 6.12255 18.0174 6.13043 17.994 6.13655C17.2623 5.43485 16.2597 5 15.15 5C12.9135 5 11.1 6.76301 11.1 8.93725C11.1 9.05187 11.0901 9.26273 11.1 9.37473C8.0823 9.37473 5.7855 7.83832 4.1385 5.87495C3.9594 6.31242 3.8811 7.00362 3.8811 7.65283C3.8811 8.87863 4.8666 10.0826 6.4011 10.8289C6.1185 10.8998 5.8071 10.9505 5.4831 10.9505C4.9602 10.9505 4.4067 10.8166 3.9 10.4107C3.9 10.4255 3.9 10.4395 3.9 10.4553C3.9 12.1684 5.7702 13.3347 7.4334 13.6593C7.0959 13.8527 6.4155 13.8719 6.0834 13.8719C5.8494 13.8719 5.0214 13.7678 4.8 13.7276C5.2626 15.1319 6.9312 15.9211 8.5215 15.9491C7.2777 16.8975 6.4146 17.2492 3.8676 17.2492H3C4.6092 18.2519 6.6585 19 8.7123 19C15.3993 19 19.2 14.0452 19.2 9.37473C19.2 9.29948 19.1982 9.14199 19.1955 8.98363C19.1955 8.96788 19.2 8.953 19.2 8.93725C19.2 8.91363 19.1928 8.89088 19.1928 8.86726C19.1901 8.74827 19.1874 8.63715 19.1847 8.5794C19.8957 8.08068 20.5122 7.4586 21 6.74989C20.3475 7.03162 19.6473 7.22061 18.912 7.30636C19.6626 6.86888 20.7291 5.82595 21 5Z" fill="black"/>
</svg>
