<svg width="24" height="24" viewBox="0 0 24 24" fill="none" xmlns="http://www.w3.org/2000/svg">
<path fill-rule="evenodd" clip-rule="evenodd" d="M3 8C3 5.239 5.239 3 8 3H16C18.761 3 21 5.239 21 8V16C21 18.761 18.761 21 16 21H8C5.239 21 3 18.761 3 16V8ZM19 6C19 5.448 18.552 5 18 5C17.448 5 17 5.448 17 6C17 6.552 17.448 7 18 7C18.552 7 19 6.552 19 6ZM12 7C14.761 7 17 9.239 17 12C17 14.761 14.761 17 12 17C9.239 17 7 14.761 7 12C7 9.239 9.239 7 12 7ZM9 12C9 10.3431 10.3431 9 12 9C13.6569 9 15 10.3431 15 12C15 13.6569 13.6569 15 12 15C10.3431 15 9 13.6569 9 12Z" fill="black"/>
</svg>
