<svg width="24" height="24" viewBox="0 0 24 24" fill="none" xmlns="http://www.w3.org/2000/svg">
<path fill-rule="evenodd" clip-rule="evenodd" d="M12 2C6.5 2 2 6.5 2 12C2 17.5 6.5 22 12 22C14.5078 22 16.8008 21.0703 18.5625 19.5312C18.7656 19.4336 18.9336 19.2656 19.0312 19.0625C20.8516 17.25 22 14.7578 22 12C22 6.5 17.5 2 12 2ZM13.0312 4.0625C14.3008 4.23047 15.4883 4.71094 16.5 5.40625C15.2812 6.47656 13.3125 8.68359 13.0625 11.9688C12.7227 11.9844 12.3672 12 12 12C11.7448 12 11.4979 11.9895 11.258 11.9792C11.1711 11.9755 11.0851 11.9719 11 11.9688C11.0039 9.21875 11.5352 7.21875 12.0625 5.90625C12.5703 4.64453 12.9961 4.10547 13.0312 4.0625ZM10.2188 5.15625C10.375 4.77344 10.5352 4.42188 10.6875 4.125C9.27734 4.36328 7.96484 4.96875 6.90625 5.84375C7.10938 6.35156 7.8125 8.3125 7.96875 11.5938C8.28516 11.6602 8.64062 11.7305 9 11.7812C9.02734 8.86328 9.61328 6.65234 10.2188 5.15625ZM18 6.75C18.832 7.70312 19.4414 8.86328 19.75 10.125C19.5977 10.2578 19.2383 10.5352 18.2812 10.9375C17.5352 11.2539 16.4609 11.543 15.0938 11.75C15.4297 9.07031 17.1445 7.42969 18 6.75ZM5.9375 11C5.82031 9.41797 5.58594 8.32812 5.375 7.5625C4.85938 8.33203 4.47656 9.20312 4.25 10.125C4.40234 10.2578 4.76172 10.5352 5.71875 10.9375C5.75055 10.9514 5.78942 10.9603 5.82868 10.9692L5.82869 10.9692L5.82871 10.9692C5.86662 10.9779 5.90488 10.9866 5.9375 11ZM4 12.3438C4.27344 12.4961 4.57812 12.6289 4.9375 12.7812C5.23828 12.9062 5.60156 13.0391 5.96875 13.1562C5.92578 14.4922 5.66797 15.6641 5.40625 16.5C4.58984 15.3047 4.06641 13.8789 4 12.3438ZM17.875 17.4062C19.1133 16.0586 19.918 14.2852 20 12.3438C19.7266 12.4961 19.4219 12.6289 19.0625 12.7812C18.1094 13.1836 16.7812 13.5547 15.125 13.7812C15.4688 15.8477 17.0273 16.9531 17.875 17.4062ZM7.96875 13.6562C8.30859 13.7188 8.68359 13.7656 9.0625 13.8125C9.24219 15.9492 9.73047 17.6367 10.2188 18.8438C10.375 19.2266 10.5352 19.5781 10.6875 19.875C9.29297 19.6406 7.99219 19.0469 6.9375 18.1875C7.26953 17.3789 7.83594 15.7266 7.96875 13.6562ZM11.3333 13.9794C11.2528 13.9757 11.173 13.9719 11.0938 13.9688C11.2695 15.7461 11.668 17.1133 12.0625 18.0938C12.5703 19.3555 12.9961 19.8945 13.0312 19.9375C14.207 19.7812 15.3203 19.3633 16.2812 18.75C15.0664 17.9375 13.4844 16.4297 13.125 13.9688C12.7656 13.9844 12.3867 14 12 14C11.772 14 11.5503 13.9896 11.3333 13.9794Z" fill="black"/>
</svg>
