<svg width="24" height="24" viewBox="0 0 24 24" fill="none" xmlns="http://www.w3.org/2000/svg">
<path fill-rule="evenodd" clip-rule="evenodd" d="M5 3H19C20.105 3 21 3.895 21 5V19C21 20.105 20.105 21 19 21H5C3.895 21 3 20.105 3 19V5C3 3.895 3.895 3 5 3ZM6.47656 17H8.99956V10H6.47656V17ZM7.694 8.717C6.923 8.717 6.408 8.203 6.408 7.517C6.408 6.831 6.922 6.317 7.779 6.317C8.55 6.317 9.065 6.831 9.065 7.517C9.065 8.203 8.551 8.717 7.694 8.717ZM15.558 17H18V13.174C18 10.977 17.023 10 15.802 10C14.581 10 13.93 10.407 13.605 10.977V10H11.082V17H13.605V13.174C13.605 12.035 14.419 11.872 14.663 11.872C14.907 11.872 15.558 12.116 15.558 13.174V17Z" fill="black"/>
</svg>
