<svg width="32" height="32" viewBox="0 0 32 32" fill="none" xmlns="http://www.w3.org/2000/svg">
<rect width="32" height="32" rx="16" fill="#ECFDF3"/>
<path d="M20.9219 9.625H23V10.2812C23 13.7812 20.4844 16.625 17.3945 16.625H16.6562V21.2188C16.6562 21.6016 16.3008 21.875 15.9727 21.875C15.6172 21.875 15.3438 21.6016 15.3438 21.2188V18.375H14.5781C11.4883 18.375 9 15.5312 9 12.0312V11.375H11.0508C12.9375 11.375 14.5781 12.4414 15.5898 14.0547C16.3281 11.4844 18.4336 9.625 20.9219 9.625ZM14.5781 17.0625H15.2891C15.0156 14.6016 13.2109 12.6875 11.0508 12.6875H10.3398C10.6133 15.1758 12.418 17.0625 14.5781 17.0625ZM17.3945 15.3125C19.5547 15.3125 21.3594 13.4258 21.6328 10.9375H20.9219C18.7617 10.9375 16.957 12.8516 16.6836 15.3125H17.3945Z" fill="#12B76A"/>
</svg>
