<svg width="25" height="24" viewBox="0 0 25 24" fill="none" xmlns="http://www.w3.org/2000/svg">
<g filter="url(#filter0_i_496_21438)">
<g clip-path="url(#clip0_496_21438)">
<path d="M20.352 0H4.31477C2.1159 0 0.333374 1.78253 0.333374 3.98139V20.0186C0.333374 22.2175 2.1159 24 4.31477 24H20.352C22.5508 24 24.3334 22.2175 24.3334 20.0186V3.98139C24.3334 1.78253 22.5508 0 20.352 0Z" fill="#F9B700"/>
<g filter="url(#filter1_d_496_21438)">
<path d="M19.6379 11.9997C19.6407 13.6401 19.0891 15.2334 18.0727 16.5211C17.8564 16.7944 17.6214 17.0524 17.3693 17.2932L16.2612 16.1851C16.3055 16.1438 16.3499 16.1011 16.3932 16.0578C16.5968 15.8543 16.785 15.636 16.9561 15.4045C17.5857 14.5498 17.9658 13.5371 18.0543 12.4792C18.1427 11.4213 17.936 10.3596 17.4571 9.41217C16.9782 8.46473 16.246 7.66868 15.3417 7.11253C14.4375 6.55638 13.3967 6.26194 12.3351 6.26194C11.2735 6.26194 10.2327 6.55638 9.32845 7.11253C8.4242 7.66868 7.69193 8.46473 7.21305 9.41217C6.73418 10.3596 6.52746 11.4213 6.61591 12.4792C6.70435 13.5371 7.08449 14.5498 7.71404 15.4045L6.59753 16.5211C5.87631 15.6063 5.38433 14.5323 5.16265 13.3887C4.94098 12.2451 4.99603 11.0651 5.32321 9.9471C5.6504 8.82912 6.24021 7.80559 7.04346 6.96194C7.84671 6.1183 8.84008 5.479 9.94068 5.09739C11.0413 4.71579 12.2172 4.60295 13.3703 4.76829C14.5234 4.93363 15.6202 5.37235 16.5692 6.04785C17.5182 6.72335 18.2919 7.61603 18.8258 8.65139C19.3596 9.68676 19.638 10.8348 19.6379 11.9997Z" fill="#FFFAE4"/>
</g>
<g filter="url(#filter2_d_496_21438)">
<path d="M14.1071 14.0346C14.5218 13.6733 14.8162 13.1941 14.9512 12.661C15.0861 12.1279 15.0551 11.5663 14.8622 11.0513C14.6693 10.5363 14.3238 10.0924 13.8719 9.77908C13.42 9.46574 12.8831 9.29785 12.3332 9.29785C11.7833 9.29785 11.2465 9.46574 10.7945 9.77908C10.3426 10.0924 9.99708 10.5363 9.80422 11.0513C9.61135 11.5663 9.58031 12.1279 9.71524 12.661C9.85018 13.1941 10.1447 13.6733 10.5593 14.0346L7.29895 17.2949C7.93721 17.9014 8.6795 18.3879 9.49025 18.7313C10.3904 19.1101 11.3571 19.3053 12.3337 19.3053C13.3103 19.3053 14.2771 19.1101 15.1772 18.7313L13.9548 17.5088C12.8954 17.8177 11.7699 17.8177 10.7106 17.5088C10.347 17.4027 9.99515 17.2601 9.66034 17.0831L11.8026 14.9408C11.8721 14.871 11.9547 14.8157 12.0457 14.7779C12.1367 14.7401 12.2342 14.7206 12.3327 14.7206C12.4312 14.7206 12.5287 14.7401 12.6197 14.7779C12.7106 14.8157 12.7933 14.871 12.8628 14.9408L15.1882 17.2662C15.4735 17.5532 15.8595 17.7179 16.2642 17.7252C16.6688 17.7325 17.0605 17.5819 17.356 17.3053L17.3669 17.2949L14.1071 14.0346ZM12.3332 13.2217C12.0174 13.2217 11.714 13.0992 11.4866 12.8801C11.2592 12.661 11.1256 12.3623 11.1138 12.0468C11.1021 11.7312 11.2131 11.4234 11.4235 11.188C11.634 10.9526 11.9275 10.8079 12.2424 10.7844C12.5573 10.7609 12.869 10.8603 13.1122 11.0618C13.3553 11.2634 13.5108 11.5513 13.546 11.8651C13.5813 12.1789 13.4936 12.4941 13.3013 12.7446C13.1089 12.995 12.827 13.1612 12.5148 13.2081C12.4546 13.2166 12.3939 13.2206 12.3332 13.2201V13.2217Z" fill="#FFFAE4"/>
</g>
</g>
<rect x="1.33337" y="1" width="22" height="22" rx="11" stroke="#FFFAE4" stroke-width="2"/>
</g>
<defs>
<filter id="filter0_i_496_21438" x="0.333374" y="0" width="24" height="24" filterUnits="userSpaceOnUse" color-interpolation-filters="sRGB">
<feFlood flood-opacity="0" result="BackgroundImageFix"/>
<feBlend mode="normal" in="SourceGraphic" in2="BackgroundImageFix" result="shape"/>
<feColorMatrix in="SourceAlpha" type="matrix" values="0 0 0 0 0 0 0 0 0 0 0 0 0 0 0 0 0 0 127 0" result="hardAlpha"/>
<feOffset dx="-3"/>
<feComposite in2="hardAlpha" operator="arithmetic" k2="-1" k3="1"/>
<feColorMatrix type="matrix" values="0 0 0 0 0.886275 0 0 0 0 0.596078 0 0 0 0 0.00784314 0 0 0 1 0"/>
<feBlend mode="normal" in2="shape" result="effect1_innerShadow_496_21438"/>
</filter>
<filter id="filter1_d_496_21438" x="5.02917" y="4.69434" width="15.6088" height="13.5986" filterUnits="userSpaceOnUse" color-interpolation-filters="sRGB">
<feFlood flood-opacity="0" result="BackgroundImageFix"/>
<feColorMatrix in="SourceAlpha" type="matrix" values="0 0 0 0 0 0 0 0 0 0 0 0 0 0 0 0 0 0 127 0" result="hardAlpha"/>
<feOffset dx="1" dy="1"/>
<feComposite in2="hardAlpha" operator="out"/>
<feColorMatrix type="matrix" values="0 0 0 0 0.886275 0 0 0 0 0.596078 0 0 0 0 0.00784314 0 0 0 1 0"/>
<feBlend mode="normal" in2="BackgroundImageFix" result="effect1_dropShadow_496_21438"/>
<feBlend mode="normal" in="SourceGraphic" in2="effect1_dropShadow_496_21438" result="shape"/>
</filter>
<filter id="filter2_d_496_21438" x="7.29895" y="9.29785" width="11.068" height="11.0078" filterUnits="userSpaceOnUse" color-interpolation-filters="sRGB">
<feFlood flood-opacity="0" result="BackgroundImageFix"/>
<feColorMatrix in="SourceAlpha" type="matrix" values="0 0 0 0 0 0 0 0 0 0 0 0 0 0 0 0 0 0 127 0" result="hardAlpha"/>
<feOffset dx="1" dy="1"/>
<feComposite in2="hardAlpha" operator="out"/>
<feColorMatrix type="matrix" values="0 0 0 0 0.886275 0 0 0 0 0.596078 0 0 0 0 0.00784314 0 0 0 1 0"/>
<feBlend mode="normal" in2="BackgroundImageFix" result="effect1_dropShadow_496_21438"/>
<feBlend mode="normal" in="SourceGraphic" in2="effect1_dropShadow_496_21438" result="shape"/>
</filter>
<clipPath id="clip0_496_21438">
<rect x="0.333374" width="24" height="24" rx="12" fill="white"/>
</clipPath>
</defs>
</svg>
