<svg width="8" height="10" viewBox="0 0 8 10" fill="none" xmlns="http://www.w3.org/2000/svg">
<path d="M0.367188 4.46875L3.64844 1.03125C3.74609 0.933594 3.86328 0.894531 4 0.894531C4.11719 0.894531 4.23438 0.933594 4.33203 1.03125L7.61328 4.46875C7.78906 4.66406 7.78906 4.95703 7.59375 5.13281C7.41797 5.30859 7.10547 5.30859 6.92969 5.11328L4.46875 2.51562V9.15625C4.46875 9.42969 4.25391 9.625 4 9.625C3.76562 9.625 3.53125 9.42969 3.53125 9.15625V2.51562L1.05078 5.11328C0.875 5.30859 0.5625 5.30859 0.386719 5.13281C0.191406 4.95703 0.191406 4.64453 0.367188 4.46875Z" fill="white"/>
</svg>
