<svg width="20" height="19" viewBox="0 0 20 19" fill="none" xmlns="http://www.w3.org/2000/svg">
<path d="M17.8125 0.75C18.3203 0.75 18.75 1.17969 18.75 1.6875C18.75 2.23438 18.3203 2.625 17.8125 2.625H3.4375C2.53906 2.625 1.875 3.32812 1.875 4.1875V14.8125C1.875 15.7109 2.53906 16.375 3.4375 16.375H16.5625C17.4219 16.375 18.125 15.7109 18.125 14.8125V7.9375C18.125 7.07812 17.4219 6.375 16.5625 6.375H4.6875C4.14062 6.375 3.75 5.98438 3.75 5.4375C3.75 4.92969 4.14062 4.5 4.6875 4.5H16.5625C18.4375 4.5 20 6.0625 20 7.9375V14.8125C20 16.7266 18.4375 18.25 16.5625 18.25H3.4375C1.52344 18.25 0 16.7266 0 14.8125V4.1875C0 2.3125 1.52344 0.75 3.4375 0.75H17.8125ZM13.75 11.375C13.75 10.7109 14.2969 10.125 15 10.125C15.6641 10.125 16.25 10.7109 16.25 11.375C16.25 12.0781 15.6641 12.625 15 12.625C14.2969 12.625 13.75 12.0781 13.75 11.375Z" fill="#1B2235"/>
</svg>
