<svg width="14" height="14" viewBox="0 0 14 14" fill="none" xmlns="http://www.w3.org/2000/svg">
<path d="M6.34375 3.65625V5H7.65625V3.65625H6.34375ZM6.34375 6.34375V10.3438H7.65625V6.34375H6.34375ZM7 0.34375C10.6875 0.34375 13.6562 3.3125 13.6562 7C13.6562 10.6875 10.6875 13.6562 7 13.6562C3.3125 13.6562 0.34375 10.6875 0.34375 7C0.34375 3.3125 3.3125 0.34375 7 0.34375ZM7 12.3438C9.9375 12.3438 12.3438 9.9375 12.3438 7C12.3438 4.0625 9.9375 1.65625 7 1.65625C4.0625 1.65625 1.65625 4.0625 1.65625 7C1.65625 9.9375 4.0625 12.3438 7 12.3438Z" fill="#F79009"/>
</svg>
