<svg width="32" height="32" viewBox="0 0 32 32" fill="none" xmlns="http://www.w3.org/2000/svg">
<rect width="32" height="32" rx="16" fill="#E8F2FF"/>
<path d="M13.8125 21.1914V20.125H18.1875L18.1602 21.1914C18.1602 21.3281 18.1055 21.5469 18.0234 21.6562L17.5586 22.3672C17.4219 22.5859 17.0938 22.75 16.8203 22.75H15.1523C14.8789 22.75 14.5508 22.5859 14.4141 22.3672L13.9492 21.6562C13.8398 21.5195 13.8125 21.3555 13.8125 21.1914ZM16 8.75C18.6523 8.77734 20.8125 10.9102 20.8125 13.5625C20.8125 14.793 20.3477 15.8867 19.6094 16.707C19.1445 17.2266 18.4609 18.3203 18.1875 19.2227C18.1875 19.2227 18.1875 19.2227 18.1875 19.25H13.7852C13.7852 19.2227 13.7852 19.2227 13.7852 19.2227C13.5117 18.3203 12.8281 17.2266 12.3633 16.707C11.625 15.8594 11.1875 14.7656 11.1875 13.5625C11.1875 11.0195 13.2109 8.77734 16 8.75ZM18.625 15.8867C19.1719 15.2305 19.5 14.4102 19.5 13.5625C19.5 11.6484 17.9141 10.0625 15.9727 10.0625C13.8125 10.0898 12.5 11.8672 12.5 13.5625C12.5 14.4102 12.8008 15.2305 13.3477 15.8867C13.7852 16.3516 14.3047 17.1445 14.6875 17.9375H17.2852C17.668 17.1445 18.1875 16.3516 18.625 15.8867ZM15.5625 10.9375C15.7812 10.9375 16 11.1562 16 11.4023C16 11.6211 15.7812 11.8125 15.5625 11.8125C14.8242 11.8125 14.25 12.4141 14.25 13.125C14.25 13.3711 14.0312 13.5625 13.8125 13.5625C13.5664 13.5625 13.375 13.3711 13.375 13.125C13.375 11.9219 14.332 10.9375 15.5625 10.9375Z" fill="#2F69FE"/>
</svg>
