<svg width="32" height="32" viewBox="0 0 32 32" fill="none" xmlns="http://www.w3.org/2000/svg">
<rect width="32" height="32" rx="16" fill="#E8F2FF"/>
<path d="M16.2188 18.8125C16.5742 18.8125 16.875 19.1133 16.875 19.4688C16.875 19.8516 16.5742 20.125 16.2188 20.125C14.6328 20.125 13.375 18.8672 13.375 17.2812C13.375 16.9258 13.6484 16.625 14.0312 16.625C14.3867 16.625 14.6875 16.9258 14.6875 17.2812C14.6875 18.1289 15.3711 18.8125 16.2188 18.8125ZM20.8125 17.5C20.8125 20.1797 18.6523 22.3125 16 22.3125C13.3203 22.3125 11.1875 20.1797 11.1875 17.5C11.1875 15.4766 13.9766 11.2109 15.2891 9.29688C15.6445 8.80469 16.3281 8.80469 16.6836 9.29688C17.9961 11.2109 20.8125 15.4766 20.8125 17.5ZM19.1172 16.1328C18.8711 15.4766 18.5156 14.7383 18.0781 14C17.3945 12.7695 16.6016 11.5391 16 10.6094C15.3711 11.5391 14.5781 12.7695 13.8945 14C13.457 14.7383 13.1016 15.4766 12.8555 16.1328C12.582 16.7891 12.5 17.2539 12.5 17.5C12.5 19.4414 14.0586 21 16 21C17.9141 21 19.5 19.4414 19.5 17.5C19.5 17.2539 19.3906 16.7891 19.1172 16.1328Z" fill="#2F69FE"/>
</svg>
