<svg width="32" height="32" viewBox="0 0 32 32" fill="none" xmlns="http://www.w3.org/2000/svg">
<rect width="32" height="32" rx="16" fill="#E8F2FF"/>
<path d="M13.5664 13.5625H14.6875C14.8516 13.5625 15.0156 13.6992 15.0977 13.8633C15.1523 14.0273 15.0977 14.2188 14.9609 14.3555L12.3359 16.543C12.1719 16.6523 11.9531 16.6797 11.7891 16.543C11.625 16.4336 11.5703 16.2148 11.6523 16.0508L12.2812 14.4375H11.1875C10.9961 14.4375 10.832 14.3281 10.75 14.1641C10.6953 14 10.75 13.7812 10.8867 13.6719L13.5117 11.4844C13.6758 11.375 13.8945 11.3477 14.0586 11.4844C14.2227 11.5938 14.2773 11.8125 14.1953 11.9766L13.5664 13.5625ZM9 21.4375V10.5C9 9.54297 9.76562 8.75 10.75 8.75H15.125C16.082 8.75 16.875 9.54297 16.875 10.5V15.75H17.0938C18.4062 15.75 19.5 16.8438 19.5 18.1562V18.9219C19.5 19.3594 19.8281 19.6875 20.2656 19.6875C20.6758 19.6875 21.0312 19.3594 21.0312 18.9219V16.1055C20.1289 15.832 19.5 14.9844 19.5 14V12.9062C19.5 12.5508 19.7734 12.25 20.1562 12.25H20.375V10.9375C20.375 10.7188 20.5664 10.5 20.8125 10.5C21.0312 10.5 21.25 10.7188 21.25 10.9375V12.25H22.125V10.9375C22.125 10.7188 22.3164 10.5 22.5625 10.5C22.7812 10.5 23 10.7188 23 10.9375V12.25H23.2188C23.5742 12.25 23.875 12.5508 23.875 12.9062V14C23.875 14.9844 23.2188 15.832 22.3438 16.1055V18.9219C22.3438 20.0703 21.3867 21 20.2656 21C19.1172 21 18.1875 20.0703 18.1875 18.9219V18.1562C18.1875 17.5547 17.6953 17.0625 17.0938 17.0625H16.875V21.4375H17.0938C17.4492 21.4375 17.75 21.7383 17.75 22.0938C17.75 22.4766 17.4492 22.75 17.0938 22.75H8.78125C8.39844 22.75 8.125 22.4766 8.125 22.0938C8.125 21.7383 8.39844 21.4375 8.78125 21.4375H9ZM10.3125 10.5V21.4375H15.5625V10.5C15.5625 10.2812 15.3438 10.0625 15.125 10.0625H10.75C10.5039 10.0625 10.3125 10.2812 10.3125 10.5ZM21.6875 14.875C22.1523 14.875 22.5625 14.4922 22.5625 14V13.5625H20.8125V14C20.8125 14.4922 21.1953 14.875 21.6875 14.875Z" fill="#2F69FE"/>
</svg>
