<svg width="32" height="32" viewBox="0 0 32 32" fill="none" xmlns="http://www.w3.org/2000/svg">
<rect width="32" height="32" rx="16" fill="#E8F2FF"/>
<path d="M16.4375 22.0938C16.4375 22.4766 16.1367 22.75 15.7812 22.75C15.3984 22.75 15.125 22.4766 15.125 22.0938V10.2812C15.125 9.46094 15.8086 8.75 16.6562 8.75H19.7188C20.5391 8.75 21.25 9.46094 21.25 10.2812V14H22.125V12.0312C22.125 11.6758 22.3984 11.375 22.7812 11.375C23.1367 11.375 23.4375 11.6758 23.4375 12.0312V14.0273C24.1758 14.1367 24.75 14.7656 24.75 15.5312V22.0938C24.75 22.4766 24.4492 22.75 24.0938 22.75C23.7109 22.75 23.4375 22.4766 23.4375 22.0938V15.5312C23.4375 15.4219 23.3281 15.3125 23.2188 15.3125H19.9375V10.2812C19.9375 10.1719 19.8281 10.0625 19.7188 10.0625H16.6562C16.5195 10.0625 16.4375 10.1719 16.4375 10.2812V22.0938ZM17.3125 11.375C17.3125 11.1562 17.5039 10.9375 17.75 10.9375H18.625C18.8438 10.9375 19.0625 11.1562 19.0625 11.375V12.25C19.0625 12.4961 18.8438 12.6875 18.625 12.6875H17.75C17.5039 12.6875 17.3125 12.4961 17.3125 12.25V11.375ZM18.625 13.5625C18.8438 13.5625 19.0625 13.7812 19.0625 14V14.875C19.0625 15.1211 18.8438 15.3125 18.625 15.3125H17.75C17.5039 15.3125 17.3125 15.1211 17.3125 14.875V14C17.3125 13.7812 17.5039 13.5625 17.75 13.5625H18.625ZM17.3125 16.625C17.3125 16.4062 17.5039 16.1875 17.75 16.1875H18.625C18.8438 16.1875 19.0625 16.4062 19.0625 16.625V17.5C19.0625 17.7461 18.8438 17.9375 18.625 17.9375H17.75C17.5039 17.9375 17.3125 17.7461 17.3125 17.5V16.625ZM22.125 16.1875C22.3438 16.1875 22.5625 16.4062 22.5625 16.625V17.5C22.5625 17.7461 22.3438 17.9375 22.125 17.9375H21.25C21.0039 17.9375 20.8125 17.7461 20.8125 17.5V16.625C20.8125 16.4062 21.0039 16.1875 21.25 16.1875H22.125ZM20.8125 19.25C20.8125 19.0312 21.0039 18.8125 21.25 18.8125H22.125C22.3438 18.8125 22.5625 19.0312 22.5625 19.25V20.125C22.5625 20.3711 22.3438 20.5625 22.125 20.5625H21.25C21.0039 20.5625 20.8125 20.3711 20.8125 20.125V19.25ZM13.375 13.125C13.375 13.2891 13.3477 13.4258 13.3203 13.5625C13.8672 13.9453 14.25 14.6016 14.25 15.3125C14.25 16.543 13.2656 17.5 12.0625 17.5H11.625V21.875C11.625 22.3672 11.2148 22.75 10.75 22.75C10.2578 22.75 9.875 22.3672 9.875 21.875V17.5H9.4375C8.20703 17.5 7.25 16.543 7.25 15.3125C7.25 14.6016 7.60547 13.9453 8.15234 13.5625C8.125 13.4258 8.125 13.2891 8.125 13.125C8.125 11.6758 9.27344 10.5 10.75 10.5C12.1992 10.5 13.375 11.6758 13.375 13.125Z" fill="#2F69FE"/>
</svg>
